<?xml version="1.0" encoding="UTF-8" standalone="no"?>
<svg
   xmlns:dc="http://purl.org/dc/elements/1.1/"
   xmlns:cc="http://creativecommons.org/ns#"
   xmlns:rdf="http://www.w3.org/1999/02/22-rdf-syntax-ns#"
   xmlns:svg="http://www.w3.org/2000/svg"
   xmlns="http://www.w3.org/2000/svg"
   xmlns:sodipodi="http://sodipodi.sourceforge.net/DTD/sodipodi-0.dtd"
   xmlns:inkscape="http://www.inkscape.org/namespaces/inkscape"
   viewBox="0 0 700 699.99999"
   height="700"
   width="700"
   xml:space="preserve"
   id="svg2"
   version="1.1"
   sodipodi:docname="gimnasia-y-esgrima-de-la-plata-logo.svg"
   inkscape:version="0.92.1 r15371"
   inkscape:export-filename="C:\Users\alex\Downloads\gimnasia-y-esgrima-de-la-plata-logo-0.png"
   inkscape:export-xdpi="561.73999"
   inkscape:export-ydpi="561.73999"><sodipodi:namedview
     pagecolor="#ffffff"
     bordercolor="#666666"
     borderopacity="1"
     objecttolerance="10"
     gridtolerance="10"
     guidetolerance="10"
     inkscape:pageopacity="0"
     inkscape:pageshadow="2"
     inkscape:window-width="1600"
     inkscape:window-height="838"
     id="namedview94"
     showgrid="false"
     inkscape:zoom="0.59465202"
     inkscape:cx="31.204926"
     inkscape:cy="410.74773"
     inkscape:window-x="-8"
     inkscape:window-y="-8"
     inkscape:window-maximized="1"
     inkscape:current-layer="g14" /><metadata
     id="metadata8"><rdf:RDF><cc:Work
         rdf:about=""><dc:format>image/svg+xml</dc:format><dc:type
           rdf:resource="http://purl.org/dc/dcmitype/StillImage" /><dc:title></dc:title></cc:Work></rdf:RDF></metadata><defs
     id="defs6"><clipPath
       id="clipPath18"
       clipPathUnits="userSpaceOnUse"><path
         id="path16"
         d="M 0,841.89 H 595.28 V 0 H 0 Z"
         inkscape:connector-curvature="0" /></clipPath></defs><g
     transform="matrix(0.6594928,0,0,-0.6594928,151.82245,628.30254)"
     id="g10"><g
       id="g12"><g
         clip-path="url(#clipPath18)"
         id="g14"><g
           transform="matrix(1.0650241,0,0,1.0650241,540.07718,524.94557)"
           id="g20"
           inkscape:export-xdpi="118.72222"
           inkscape:export-ydpi="118.72222"><path
             id="path22"
             style="fill:#15155c;fill-opacity:1;fill-rule:nonzero;stroke:none"
             d="m 0,0 c -0.35,-1.37 -1.26,-2.54 -2.29,-3.51 -4.11,-3.86 -8.37,-4.56 -13.84,-3.83 -16.23,2.19 -26.86,16.55 -36.43,28.38 -0.11,0.14 -1.83,2.09 -1.76,2.19 l 3.23,4.5 c 6.42,-7.68 13.64,-15.19 21.79,-21.04 2.71,-1.95 6.12,-4.36 9.5,-4.81 1.79,-0.24 3.2,0.61 4.6,1.6 1.74,1.23 2.76,3.07 4.83,4.03 C -8.01,8.6 -5.8,7.87 -3.92,6.25 -1.92,4.53 0.79,3.1 0,0 m -39.87,-2.54 c -1.88,0.07 -2.92,1.65 -4.4,2.56 -1.23,0.76 -2.58,1.31 -3.99,1.59 -0.21,0.05 -3.97,0.4 -3.94,0.06 0.2,-2.37 0.02,-4.84 -1.01,-7.01 -2.98,-6.24 -12.22,-7.14 -18.1,-5.67 -3.74,0.94 -7.21,2.75 -10.39,4.89 -6.8,4.59 -12.8,10.46 -15.75,18.25 -2.18,5.77 -3.04,12 -3.1,18.15 -0.03,2.07 0.04,4.15 0.22,6.21 0.02,0.24 0.02,2.25 0.26,2.37 5.25,2.56 9.56,0.93 9.56,0.93 0,0 5.5,-12.5 18.25,-22.5 12.75,-10 31.56,-12.81 31.56,-12.81 l 4.63,-4.44 c -0.76,-1.49 -2.06,-2.64 -3.8,-2.58 m -72.01,41.46 c -2.75,0.31 -5.02,1.76 -4.82,4.81 0.5,7.5 10.13,7.75 10.13,7.75 0,0 25.38,2.13 43.8,-14.04 l 0.02,-0.02 -3.57,-5.81 c 0,0 -9.26,6.48 -10.23,7.02 -6.19,3.46 -12.47,4.78 -19.65,3.54 -5.31,-0.92 -10.13,-3.87 -15.68,-3.25 m 55.24,-16.42 -5.58,-9.43 -9.19,5.85 5.38,9.27 z m 4.71,7.96 -3.91,-6.62 -9.4,5.71 4,6.9 z m -7.52,11.31 c 3.34,10.94 10.25,15.29 10.25,15.29 l 9.25,-5.49 c -0.51,-8.17 -6.69,-15.3 -9.61,-18.24 -0.93,-0.94 -1.53,-1.45 -1.53,-1.45 l -9.35,5.94 c 0.27,1.4 0.61,2.72 0.99,3.95 m 21.97,35.63 9.28,-5.75 C -28.78,62.9 -38.87,53.31 -38.87,53.31 l -9.41,5.59 c 0.58,11.75 10.8,18.5 10.8,18.5 m 17.11,20 c 11.09,-5.42 -5.58,-23 -6.66,-23.84 l -9.92,5.92 c 0,0 5.5,23.33 16.58,17.92 M -8.45,13.98 c -2.75,0.25 -7.5,-2.38 -11,-6.19 0,0 -3.25,-1.31 -16.5,11.69 0,0 -3.8,4.39 -9.68,10.13 8.55,5.48 11.43,19.87 11.43,19.87 10.31,8.91 11.4,18.91 11.49,20.13 -0.07,-0.04 -0.07,-0.01 0.01,0.12 0,0 0,-0.04 -0.01,-0.12 1.19,0.73 22.76,24.55 5.26,32.87 -17.88,8.5 -24.5,-21 -24.5,-21 -12,-10 -11.75,-20.5 -11.75,-20.5 -7.2,-6.37 -9.8,-11.71 -10.47,-15.68 -5.41,3.82 -11.08,7.09 -16.53,8.93 -20.75,7 -34.25,1.5 -34.25,1.5 0,0 -8.5,-3.5 -8,-13.5 0.5,-10 14.5,-9 16.75,-8.25 0,0 -3.63,-23.81 14.85,-40.43 -13.83,-23.6 -114.21,-194.28 -198.35,-324.47 -25.69,-43.79 -38.75,-67.85 -64.42,-114.36 l 6.17,-4.32 c 0,0 32.2,43.23 76.83,106 63.64,89.49 145.36,223.01 196.83,327.32 23.59,-7.4 46.84,7.01 46.84,7.01 0,0 17.75,-9 28.25,1.25 0,0 4.5,2.25 4.5,10 0,7.75 -11,11.75 -13.75,12"
             inkscape:connector-curvature="0" /></g><g
           transform="matrix(1.0650241,0,0,1.0650241,450.3063,533.1995)"
           id="g24"
           inkscape:export-xdpi="118.72222"
           inkscape:export-ydpi="118.72222"><path
             id="path26"
             style="fill:#15155c;fill-opacity:1;fill-rule:nonzero;stroke:none"
             d="M 0,0 C 0.5,-1.65 0.74,-3.37 0.9,-5.08 -16.04,4.86 -11.6,30.07 -11.6,30.07 -3.91,11.29 7.15,8.36 7.15,8.36 c 0,0 -2.87,0 -6.62,-0.19 C -0.55,8.11 -1.48,7.59 -1.79,6.52 -2.48,4.09 -0.65,2.19 0,0"
             inkscape:connector-curvature="0" /></g><g
           transform="matrix(1.0650241,0,0,1.0650241,128.11722,529.30641)"
           id="g28"
           style="fill:#121a61;fill-opacity:1"
           inkscape:export-xdpi="118.72222"
           inkscape:export-ydpi="118.72222"><path
             id="path30"
             style="fill:#121a61;fill-opacity:1;fill-rule:nonzero;stroke:none"
             d="m 0,0 c -0.578,-0.191 -1.216,-0.127 -1.73,0.199 -1.542,0.979 -4.829,3.489 -4.683,8.657 0.009,0.311 0.133,0.611 0.349,0.836 0.468,0.49 1.484,1.393 3.362,2.493 1.246,0.733 2.931,1.568 5.207,2.457 1.86,0.727 3.996,0.151 5.232,-1.418 1.269,-1.615 2.44,-3.459 2.735,-6.588 C 10.52,6.133 10.33,5.638 9.987,5.266 8.64,3.804 6.743,2.339 5,1.646 3.381,1.001 1.657,0.548 0,0 m -4.492,-2.225 c -1.89,-0.5 -3.83,-0.91 -5.81,-1.24 -2.67,-0.46 -5.4,-0.78 -8.09,-1.02 -11.74,-1.07 -22.74,5.09 -30.45,15.21 -1.28,1.67 -2.47,3.46 -3.55,5.33 -5.74,0.14 -10.33,4.81 -10.33,10.58 0,3.21 1.42,6.08 3.68,8.01 -0.26,1.56 -0.47,3.14 -0.6,4.74 0,0.57 0,1.12 0.02,1.67 0.24,14.49 3.72,23.96 10.91,30.62 0.59,0.55 1.2,1.08 1.84,1.59 0.01,-0.01 0.01,-0.01 0.01,0 0.72,0.56 1.46,1.1 2.23,1.63 0.42,-0.52 0.86,-0.99 1.32,-1.4 0.81,-0.75 1.67,-1.34 2.6,-1.78 -0.32,-0.32 -0.64,-0.65 -0.96,-0.99 -0.38,-0.41 -0.76,-0.82 -1.11,-1.25 -1.73,-1.99 -3.25,-4.17 -4.53,-6.5 -3.18,-5.72 -5,-12.35 -5,-19.42 0,-0.22 0,-0.45 0.01,-0.67 0.03,-1.93 0.2,-3.83 0.49,-5.68 0.2,-0.01 0.4,-0.02 0.6,-0.04 0.15,-0.01 0.3,-0.02 0.45,-0.05 0.18,-0.02 0.35,-0.04 0.52,-0.08 0.06,-0.01 0.11,-0.02 0.17,-0.03 0.03,0 0.06,-0.01 0.09,-0.02 0.04,0 0.09,-0.02 0.13,-0.03 0.1,-0.01 0.2,-0.04 0.3,-0.07 0.11,-0.03 0.21,-0.05 0.31,-0.08 0.17,-0.05 0.34,-0.1 0.51,-0.16 0.09,-0.03 0.19,-0.06 0.28,-0.09 0.06,-0.03 0.12,-0.05 0.18,-0.07 0.32,-0.13 0.62,-0.26 0.92,-0.41 0.16,-0.09 0.33,-0.17 0.48,-0.27 0.34,-0.19 0.66,-0.4 0.98,-0.63 0.13,-0.1 0.26,-0.2 0.39,-0.3 0.07,-0.06 0.15,-0.12 0.22,-0.19 0.13,-0.1 0.25,-0.21 0.37,-0.33 0.13,-0.11 0.25,-0.23 0.36,-0.35 0.19,-0.19 0.37,-0.39 0.54,-0.6 0.04,-0.03 0.07,-0.07 0.1,-0.11 v -0.01 c 0.11,-0.14 0.22,-0.28 0.32,-0.42 0.07,-0.09 0.14,-0.19 0.19,-0.28 0.17,-0.23 0.32,-0.47 0.45,-0.71 0.14,-0.24 0.27,-0.48 0.38,-0.73 0.04,-0.09 0.08,-0.17 0.12,-0.26 0.02,-0.03 0.03,-0.07 0.04,-0.1 0.06,-0.12 0.1,-0.23 0.14,-0.35 0.04,-0.1 0.08,-0.21 0.12,-0.32 0.03,-0.1 0.07,-0.2 0.1,-0.31 0.14,-0.43 0.25,-0.87 0.32,-1.32 v -0.01 c 0,0 0,-0.01 0.01,-0.01 0.03,-0.14 0.05,-0.28 0.06,-0.43 0.02,-0.15 0.04,-0.3 0.06,-0.44 0.02,-0.32 0.04,-0.64 0.04,-0.96 0,-2.2 -0.67,-4.25 -1.83,-5.95 1.21,-1.49 2.5,-2.93 3.86,-4.3 5.82,-5.88 12.84,-10.33 21.01,-10.87 0.16,-0.01 0.32,-0.02 0.47,-0.02 2.14,-0.09 4.15,0.21 6.07,0.84 1.24,0.4 2.43,0.93 3.58,1.58 0.13,-3.59 3.5,-7.44 5.76,-9.61 -0.61,-0.19 -1.23,-0.37 -1.85,-0.53 m -47.9,97.86 c 0,4 3.25,7.25 7.25,7.25 3.41,0 6.28,-2.37 7.04,-5.55 0.14,-0.54 0.21,-1.11 0.21,-1.7 0,-0.44 -0.04,-0.86 -0.12,-1.27 -0.03,-0.01 -0.06,-0.02 -0.09,-0.03 -1.57,-0.56 -3.05,-1.35 -4.39,-2.32 -0.38,-0.27 -0.75,-0.55 -1.1,-0.86 -0.79,-0.65 -1.52,-1.38 -2.17,-2.16 -1.17,0.08 -2.27,0.39 -3.21,0.9 -0.02,0.02 -0.05,0.03 -0.07,0.04 -2.02,1.12 -3.35,3.14 -3.35,5.7 m 17.55,-3.59 c 0.47,-0.07 0.94,-0.17 1.39,-0.29 1.93,-0.52 3.66,-1.49 4.8,-2.85 0.89,-1.06 1.43,-2.36 1.43,-3.86 0,-0.05 0,-0.09 -0.01,-0.14 -0.02,-1 -0.4,-1.9 -0.98,-2.7 -0.49,-0.67 -1.13,-1.28 -1.85,-1.8 -2.23,-1.63 -5.2,-2.52 -6.74,-2.52 -0.85,0 -1.67,0.02 -2.45,0.09 -1.79,0.15 -3.37,0.54 -4.5,1.44 -0.67,0.54 -1.19,1.25 -1.51,2.2 -0.2,0.58 -0.32,1.25 -0.36,2.02 -0.01,0.19 -0.02,0.38 -0.02,0.58 0,1.85 0.68,3.52 1.82,4.85 0.04,0.05 0.09,0.1 0.14,0.15 0.67,0.77 1.51,1.42 2.46,1.91 0.68,0.36 1.42,0.63 2.2,0.81 0.72,0.17 1.46,0.26 2.22,0.26 0.66,0 1.32,-0.05 1.96,-0.15 m -11,-50.43 c -0.09,0.9 -0.13,1.79 -0.13,2.69 0,3.26 0.37,6.45 1.1,9.48 0.77,3.14 1.92,6.12 3.44,8.82 2.06,-8.77 5.81,-19.01 12.41,-31.22 3.81,-7.05 8.37,-13.87 13.11,-20.07 -2.39,-0.25 -4.83,0.04 -7.24,0.76 -4.93,1.5 -9.72,4.85 -13.62,9.3 0.57,1.65 0.88,3.42 0.88,5.26 0,6.74 -4.1,12.52 -9.95,14.98 m 19.6,34.27 c 0.09,-0.11 0.18,-0.22 0.27,-0.33 0.37,-0.46 0.75,-0.92 1.12,-1.4 l 0.42,-0.54 c 5.39,-6.89 10.95,-15.18 15.88,-24.28 5.93,-10.96 9.71,-20.88 12.25,-29.77 0.12,-0.43 0.24,-2.135 0.36,-2.555 -0.42,-0.39 -2.133,-0.496 -2.533,-0.666 -2.29,-0.94 -4.405,-1.29 -5.125,-1.15 -1.25,0.24 -0.792,4.611 -0.792,4.611 0,0 -3.42,-5.84 -5.55,-4.55 -1.32,0.8 -2.62,2.13 -1.2,8.38 1.29,5.71 0.83,6.83 0.83,6.83 0,0 -1.6,-5.87 -6.23,-4.91 -5.16,1.06 -0.22,18.58 -0.01,19.31 -0.22,-0.49 -4.09,-8.78 -6.71,-7.65 -4.3,1.85 -2.5,7.67 -2.13,10.42 0.36,2.66 2.29,9.39 2.41,9.81 -0.25,-0.49 -4.98,-9.48 -7.66,-6.43 -2.75,3.12 2.5,18 2.5,18 -3.58,-6.05 -6.08,-5.46 -6.08,-5.46 -1.6,-0.18 -1.97,2.93 -1.96,5.88 0,0.15 0,0.31 0.01,0.46 0,0.28 0,0.57 0.02,0.84 0.51,0.01 1.03,0.04 1.57,0.12 0.25,0.02 0.51,0.06 0.77,0.11 3.81,0.69 5.65,2.22 7.19,4.37 0.13,0.18 0.26,0.36 0.38,0.55 m 50.98,-53.13 c 6,-1.74 4,-11.53 4,-11.53 0,0 -0.34,-4.03 -5.28,-3.84 -2.21,0.09 -3.34,0.86 -3.91,1.7 0.836,1.266 1.642,2.616 2.422,4.062 0.31,0.576 -0.391,1.165 -0.907,0.763 -2.217,-1.729 -5.146,-3.459 -8.865,-5.715 l -0.24,-0.15 c -0.26,2.81 -1.21,6.67 -4.35,8.47 0,0 11.13,8 17.13,6.24 m 200.29,-360.12 -210.05,340.63 c 0.21,0.21 0.41,0.43 0.61,0.65 3.87,-1.76 15.73,-6.2 18.65,4.22 3.5,12.5 -4.38,18.62 -4.38,18.62 -8.14,4.92 -17.37,-0.48 -21.36,-3.39 -0.22,0.7 -0.44,1.41 -0.67,2.12 -0.18,0.57 -0.37,1.16 -0.57,1.74 -2.44,7.3 -5.76,15.23 -10.4,23.79 -5.17,9.55 -11.04,18.2 -16.67,25.28 -0.14,0.18 -0.27,0.35 -0.41,0.52 -0.29,0.36 -0.57,0.71 -0.85,1.05 0.23,0.47 0.43,0.96 0.59,1.46 0.4,1.25 0.06,1.89 -0.29,2.66 0.09,0.58 0.13,1.17 0.13,1.77 0,0.16 0,0.32 -0.01,0.48 0,0.04 0,0.08 -0.01,0.12 -0.08,2.16 -0.63,4.23 -1.6,6.07 -1.96,3.73 -5.61,6.5 -10.47,7.11 -0.67,6.12 -5.39,10.85 -12.79,10.85 -6.83,0 -12.37,-5.54 -12.37,-12.38 0,-4.78 2.71,-8.93 6.68,-10.99 -0.2,-0.91 -0.31,-1.83 -0.31,-2.76 0,-1.69 0.36,-3.23 1,-4.61 -9.97,-8.78 -15.12,-21.45 -15.12,-38.05 0,-1.24 0.05,-2.47 0.15,-3.7 -1.83,-2.63 -2.9,-5.82 -2.9,-9.26 0,-7.45 5.02,-13.74 11.87,-15.65 9.48,-14.11 25.1,-23.55 40.77,-20.96 3.52,0.58 6.78,1.22 9.81,1.99 1.9,0.48 3.72,1.01 5.45,1.62 0.26,0.09 0.52,0.18 0.77,0.28 l 30.58,-58.61 42.61,-64.17 c 11.32,-39.92 78.33,-144.37 133.39,-223.67 l 74,-101.16 6.17,4.32 z"
             inkscape:connector-curvature="0" /></g><g
           transform="matrix(1.0650241,0,0,1.0650241,170.03455,278.10492)"
           id="g32"
           inkscape:export-xdpi="118.72222"
           inkscape:export-ydpi="118.72222"><path
             id="path34"
             style="fill:#15155c;fill-opacity:1;fill-rule:nonzero;stroke:none"
             d="m 0,0 c -14.77,0.99 -25.07,2.69 -32.25,4.52 8.31,-8.66 16.07,-21.17 22.11,-39.09 0,0 -56.19,-19.76 -79.61,55.57 0,0 13.13,4.49 29.45,0.31 -25.23,23.56 -32.95,64.19 -32.95,64.19 10.93,-0.38 21.05,-3.65 30.28,-8.71 -17.39,23.39 -13.28,55.46 -13.28,55.46 7.86,-3.41 15.07,-7.58 21.64,-12.25 -19.88,25.72 -23.64,65.75 -23.64,65.75 C -28,154.5 -2.75,100 -2.75,100 -15.9,97.47 -26.8,99.32 -35.83,103.91 -7.48,74.98 4,40 4,40 -12.31,42.78 -24.05,47 -32.32,51.14 -11.55,27.37 0,0 0,0"
             inkscape:connector-curvature="0" /></g><g
           transform="matrix(1.0650241,0,0,1.0650241,152.46165,245.14243)"
           id="g36"
           style="fill:#039d53;fill-opacity:1"
           inkscape:export-xdpi="118.72222"
           inkscape:export-ydpi="118.72222"><path
             id="path38"
             style="fill:#039d53;fill-opacity:1;fill-rule:nonzero;stroke:none"
             d="m 0,0 c -8.42,1.95 -45.33,-9.55 -65.5,48.12 24.18,3.18 47.12,-7.87 64.24,-45.3 -0.56,0.24 -1.18,0.52 -1.85,0.83 -1.09,0.5 -2.31,1.08 -3.63,1.73 -1.33,0.65 -2.75,1.39 -4.25,2.17 -1.48,0.82 -4.91,2.71 -5.04,2.78 -0.41,1.88 -1.92,6.5 -7.14,10.74 0,0 3.8,-6.14 3.23,-8.43 -0.21,0.13 -0.41,0.25 -0.62,0.38 -1.68,0.99 -3.32,2.08 -4.98,3.14 -1.67,1.06 -3.27,2.21 -4.88,3.3 -0.03,0.02 -0.06,0.04 -0.09,0.06 -0.16,1.38 -0.77,5.37 -2.53,7.93 0,0 1.42,-5.09 0.74,-6.66 -0.94,0.68 -1.85,1.36 -2.75,2.01 -1.5,1.09 -2.88,2.23 -4.23,3.26 -1.07,0.82 -2.07,1.65 -3,2.43 0.09,0.95 0.21,3.33 -0.51,4.71 l -0.37,-3.97 c -1.07,0.91 -2.08,1.7 -2.91,2.48 -0.9,0.8 -1.68,1.51 -2.32,2.09 -0.86,0.76 -1.48,1.32 -1.79,1.6 0.31,-0.3 0.91,-0.87 1.73,-1.67 0.62,-0.6 1.38,-1.32 2.25,-2.16 0.87,-0.84 1.91,-1.72 3.01,-2.72 0,0 -3.33,0.14 -4.15,0.34 0.39,-0.13 3.66,-1.19 5.02,-1.11 0.85,-0.77 1.76,-1.57 2.75,-2.37 1.31,-1.08 2.67,-2.27 4.13,-3.41 0.88,-0.68 1.77,-1.38 2.68,-2.08 -0.6,-0.47 -2.24,-1.26 -5.85,-0.02 0,0 3.16,-2.26 7.58,-1.3 0.04,-0.03 0.09,-0.07 0.13,-0.1 1.58,-1.14 3.15,-2.35 4.8,-3.47 1.63,-1.12 3.25,-2.27 4.9,-3.32 0.17,-0.11 0.34,-0.22 0.5,-0.33 -1.81,-1.31 -5.69,-1.64 -9.69,-0.07 0.81,-0.4 8.81,-4.18 13.74,-2.48 0.1,-0.07 3.45,-2.06 4.92,-2.92 1.49,-0.84 2.9,-1.63 4.22,-2.33 C -6.2,3.18 -4.98,2.55 -3.89,2.01 -2.81,1.46 -1.84,1.02 -1.06,0.64 -0.7,0.48 -0.37,0.33 -0.09,0.21 -0.06,0.14 -0.03,0.07 0,0"
             inkscape:connector-curvature="0" /></g><g
           transform="matrix(1.0650241,0,0,1.0650241,152.46165,245.14243)"
           id="g40"
           inkscape:export-xdpi="118.72222"
           inkscape:export-ydpi="118.72222"><path
             id="path42"
             style="fill:none;stroke:#15155c;stroke-width:0.25;stroke-linecap:butt;stroke-linejoin:miter;stroke-miterlimit:10;stroke-dasharray:none;stroke-opacity:1"
             d="m 0,0 c -8.42,1.95 -45.33,-9.55 -65.5,48.12 24.18,3.18 47.12,-7.87 64.24,-45.3 -0.56,0.24 -1.18,0.52 -1.85,0.83 -1.09,0.5 -2.31,1.08 -3.63,1.73 -1.33,0.65 -2.75,1.39 -4.25,2.17 -1.48,0.82 -4.91,2.71 -5.04,2.78 -0.41,1.88 -1.92,6.5 -7.14,10.74 0,0 3.8,-6.14 3.23,-8.43 -0.21,0.13 -0.41,0.25 -0.62,0.38 -1.68,0.99 -3.32,2.08 -4.98,3.14 -1.67,1.06 -3.27,2.21 -4.88,3.3 -0.03,0.02 -0.06,0.04 -0.09,0.06 -0.16,1.38 -0.77,5.37 -2.53,7.93 0,0 1.42,-5.09 0.74,-6.66 -0.94,0.68 -1.85,1.36 -2.75,2.01 -1.5,1.09 -2.88,2.23 -4.23,3.26 -1.07,0.82 -2.07,1.65 -3,2.43 0.09,0.95 0.21,3.33 -0.51,4.71 l -0.37,-3.97 c -1.07,0.91 -2.08,1.7 -2.91,2.48 -0.9,0.8 -1.68,1.51 -2.32,2.09 -0.86,0.76 -1.48,1.32 -1.79,1.6 0.31,-0.3 0.91,-0.87 1.73,-1.67 0.62,-0.6 1.38,-1.32 2.25,-2.16 0.87,-0.84 1.91,-1.72 3.01,-2.72 0,0 -3.33,0.14 -4.15,0.34 0.39,-0.13 3.66,-1.19 5.02,-1.11 0.85,-0.77 1.76,-1.57 2.75,-2.37 1.31,-1.08 2.67,-2.27 4.13,-3.41 0.88,-0.68 1.77,-1.38 2.68,-2.08 -0.6,-0.47 -2.24,-1.26 -5.85,-0.02 0,0 3.16,-2.26 7.58,-1.3 0.04,-0.03 0.09,-0.07 0.13,-0.1 1.58,-1.14 3.15,-2.35 4.8,-3.47 1.63,-1.12 3.25,-2.27 4.9,-3.32 0.17,-0.11 0.34,-0.22 0.5,-0.33 -1.81,-1.31 -5.69,-1.64 -9.69,-0.07 0.81,-0.4 8.81,-4.18 13.74,-2.48 0.1,-0.07 3.45,-2.06 4.92,-2.92 1.49,-0.84 2.9,-1.63 4.22,-2.33 C -6.2,3.18 -4.98,2.55 -3.89,2.01 -2.81,1.46 -1.84,1.02 -1.06,0.64 -0.7,0.48 -0.37,0.33 -0.09,0.21 -0.06,0.14 -0.03,0.07 0,0 Z"
             inkscape:connector-curvature="0" /></g><g
           transform="matrix(1.0650241,0,0,1.0650241,139.87306,296.14643)"
           id="g44"
           style="fill:#039d53;fill-opacity:1"
           inkscape:export-xdpi="118.72222"
           inkscape:export-ydpi="118.72222"><path
             id="path46"
             style="fill:#039d53;fill-opacity:1;fill-rule:nonzero;stroke:none"
             d="M 0,0 C 5.48,-4.2 11.11,-7.77 16.64,-10.13 -11.42,-9.8 -42.12,8.7 -57.11,61.75 -16.89,55.82 7.15,11.7 17.71,-8.71 14.33,-7.53 8.72,-4.87 0.78,1.1 c -0.1,1.89 -0.79,6.61 -5.07,11.16 0.11,-0.34 2.11,-6.27 1.64,-8.5 -2.78,2.23 -5.8,4.83 -9.08,7.87 -0.11,2.05 -0.83,7.8 -5.52,14.79 0.12,-0.45 2.48,-8.71 1.74,-11.2 -3.92,3.81 -8.18,8.22 -12.76,13.3 0.3,1.32 0.58,5.27 -4.07,12.14 0.1,-0.42 1.92,-7.98 1.44,-9.18 -3.14,3.55 -6.42,7.41 -9.86,11.61 0.78,-1.08 4.36,-5.93 9.75,-12.35 -0.3,-0.37 -2.29,-0.11 -9.92,3.11 0,0 7.95,-7.43 12.29,-5.91 3.62,-4.2 7.86,-8.89 12.5,-13.55 -0.92,-0.52 -3.69,-1.07 -11.58,2.13 0,0 7.4,-5.84 15.26,-5.73 C -9.65,8.1 -6.72,5.46 -3.72,2.98 -5.21,2.76 -8.7,2.33 -11.93,2.64 -11.93,2.64 -3.64,-0.64 0,0"
             inkscape:connector-curvature="0" /></g><g
           transform="matrix(1.0650241,0,0,1.0650241,159.13935,330.46151)"
           id="g48"
           style="fill:#039d53;fill-opacity:1"
           inkscape:export-xdpi="118.72222"
           inkscape:export-ydpi="118.72222"><path
             id="path50"
             style="fill:#039d53;fill-opacity:1;fill-rule:nonzero;stroke:none"
             d="M 0,0 C -57.9,15.21 -60.32,60.67 -60.46,73.8 -23.25,54.97 -4.57,19.1 3.79,0.66 -0.25,2.4 -7.63,6.77 -18.4,17.71 c 0.26,1.77 0.4,5.92 -2.49,11.19 0,0 -1,-1.87 -0.63,-4.31 0,0 0.28,-2.44 -0.02,-3.6 -2.66,2.85 -5.5,6.07 -8.53,9.72 0.45,1.69 1.32,6.27 -0.79,10.88 0,0 -0.33,-6.26 -2.09,-7.35 -2.79,3.48 -5.74,7.32 -8.83,11.54 0.23,1.06 0.87,4.61 -0.07,7.14 0,0 -0.74,-4.4 -1.29,-5.26 -1.26,1.74 -2.54,3.54 -3.84,5.4 0.15,-0.26 1.31,-2.29 3.35,-5.48 -0.91,0.09 -4.21,0.51 -5.96,1.5 0.29,-0.23 5.11,-4.05 7.4,-3.7 2.1,-3.21 4.86,-7.21 8.17,-11.59 -0.81,-0.53 -3.1,-1.4 -8.37,0.11 0,0 2.34,-4.16 11.3,-3.91 h 0.01 c 2.56,-3.23 5.38,-6.59 8.43,-9.94 -0.94,-0.39 -3.28,-0.78 -8.6,0.72 0.39,-0.29 7.38,-5.33 11.9,-4.24 C -13.54,10.52 -7.02,4.72 0,0"
             inkscape:connector-curvature="0" /></g><g
           transform="matrix(1.0650241,0,0,1.0650241,138.85064,401.30691)"
           id="g52"
           style="fill:#039d53;fill-opacity:1"
           inkscape:export-xdpi="118.72222"
           inkscape:export-ydpi="118.72222"><path
             id="path54"
             style="fill:#039d53;fill-opacity:1;fill-rule:nonzero;stroke:none"
             d="M 0,0 C 3.58,-3.39 9.46,-8.38 14.95,-10.87 -23.62,-12.96 -34.76,34.12 -40.89,57.34 -10.93,34.96 8.38,4.91 16.59,-9.62 13.52,-8.24 7.33,-4.95 1.06,1.39 c -0.16,2 -0.9,6.66 -4.27,10.42 0.09,-0.31 1.71,-5.69 1.39,-7.64 -2.65,2.64 -5.61,5.8 -8.86,9.56 0.43,1.37 0.94,4.58 -1.51,8.84 0,0 -0.71,-3.96 -0.06,-6.99 -2.84,3.36 -5.87,7.15 -9.08,11.45 0.52,3.68 -0.72,7.37 -0.72,7.37 0.35,-2.85 -0.14,-4.36 -0.97,-5.1 -1.58,2.16 -3.21,4.44 -4.89,6.84 0.32,-0.56 1.89,-3.26 4.43,-7.15 -1.7,-0.92 -4.23,0.44 -4.47,0.57 2.35,-2.42 4.94,-2.85 6.03,-2.92 2.22,-3.31 4.99,-7.22 8.16,-11.29 0,0 -1.46,-1.45 -6.95,1.21 0.23,-0.25 4.27,-4.71 8.99,-3.76 2.72,-3.36 5.7,-6.78 8.86,-10 -0.98,-0.98 -2.42,-0.86 -7.94,0.19 0,0 6.35,-4.1 10.8,-2.99"
             inkscape:connector-curvature="0" /></g><g
           transform="matrix(1.0650241,0,0,1.0650241,426.72102,278.10492)"
           id="g56"
           inkscape:export-xdpi="118.72222"
           inkscape:export-ydpi="118.72222"><path
             id="path58"
             style="fill:#15155c;fill-opacity:1;fill-rule:nonzero;stroke:none"
             d="m 0,0 c 14.77,0.99 25.07,2.69 32.25,4.52 -8.31,-8.66 -16.07,-21.17 -22.11,-39.09 0,0 56.19,-19.76 79.61,55.57 0,0 -13.13,4.49 -29.45,0.31 C 85.53,44.87 93.25,85.5 93.25,85.5 82.32,85.12 72.2,81.85 62.97,76.79 80.36,100.18 76.25,132.25 76.25,132.25 68.39,128.84 61.18,124.67 54.61,120 74.49,145.72 78.25,185.75 78.25,185.75 28,154.5 2.75,100 2.75,100 15.9,97.47 26.8,99.32 35.83,103.91 7.48,74.98 -4,40 -4,40 12.31,42.78 24.05,47 32.32,51.14 11.55,27.37 0,0 0,0"
             inkscape:connector-curvature="0" /></g><g
           transform="matrix(1.0650241,0,0,1.0650241,444.29392,245.14243)"
           id="g60"
           inkscape:export-xdpi="118.72222"
           inkscape:export-ydpi="118.72222"><path
             id="path62"
             style="fill:#607f4e;fill-opacity:1;fill-rule:nonzero;stroke:none"
             d="M 0,0 C 8.42,1.95 45.33,-9.55 65.5,48.12 41.32,51.3 18.38,40.25 1.26,2.82 c 0.56,0.24 1.18,0.52 1.85,0.83 1.09,0.5 2.31,1.08 3.63,1.73 1.33,0.65 2.75,1.39 4.25,2.17 1.48,0.82 4.91,2.71 5.04,2.78 0.41,1.88 1.92,6.5 7.14,10.74 0,0 -3.8,-6.14 -3.23,-8.43 0.21,0.13 0.41,0.25 0.62,0.38 1.68,0.99 3.32,2.08 4.98,3.14 1.67,1.06 3.27,2.21 4.88,3.3 0.03,0.02 0.06,0.04 0.09,0.06 0.16,1.38 0.77,5.37 2.53,7.93 0,0 -1.42,-5.09 -0.74,-6.66 0.94,0.68 1.85,1.36 2.75,2.01 1.5,1.09 2.88,2.23 4.23,3.26 1.07,0.82 2.07,1.65 3,2.43 -0.09,0.95 -0.21,3.33 0.51,4.71 l 0.37,-3.97 c 1.07,0.91 2.08,1.7 2.91,2.48 0.9,0.8 1.68,1.51 2.32,2.09 0.86,0.76 1.48,1.32 1.79,1.6 -0.31,-0.3 -0.91,-0.87 -1.73,-1.67 -0.62,-0.6 -1.38,-1.32 -2.25,-2.16 -0.87,-0.84 -1.91,-1.72 -3.01,-2.72 0,0 3.33,0.14 4.15,0.34 C 46.95,29.06 43.68,28 42.32,28.08 41.47,27.31 40.56,26.51 39.57,25.71 38.26,24.63 36.9,23.44 35.44,22.3 c -0.88,-0.68 -1.77,-1.38 -2.68,-2.08 0.6,-0.47 2.24,-1.26 5.85,-0.02 0,0 -3.16,-2.26 -7.58,-1.3 -0.04,-0.03 -0.09,-0.07 -0.13,-0.1 -1.58,-1.14 -3.15,-2.35 -4.8,-3.47 -1.63,-1.12 -3.25,-2.27 -4.9,-3.32 -0.17,-0.11 -0.34,-0.22 -0.5,-0.33 1.81,-1.31 5.69,-1.64 9.69,-0.07 C 29.58,11.21 21.58,7.43 16.65,9.13 16.55,9.06 13.2,7.07 11.73,6.21 10.24,5.37 8.83,4.58 7.51,3.88 6.2,3.18 4.98,2.55 3.89,2.01 2.81,1.46 1.84,1.02 1.06,0.64 0.7,0.48 0.37,0.33 0.09,0.21 0.06,0.14 0.03,0.07 0,0"
             inkscape:connector-curvature="0" /></g><g
           transform="matrix(1.0650241,0,0,1.0650241,444.29392,245.14243)"
           id="g64"
           style="fill:#039d53;fill-opacity:1"
           inkscape:export-xdpi="118.72222"
           inkscape:export-ydpi="118.72222"><path
             id="path66"
             style="fill:#039d53;fill-opacity:1;stroke:#15155c;stroke-width:0.25;stroke-linecap:butt;stroke-linejoin:miter;stroke-miterlimit:10;stroke-dasharray:none;stroke-opacity:1"
             d="M 0,0 C 8.42,1.95 45.33,-9.55 65.5,48.12 41.32,51.3 18.38,40.25 1.26,2.82 c 0.56,0.24 1.18,0.52 1.85,0.83 1.09,0.5 2.31,1.08 3.63,1.73 1.33,0.65 2.75,1.39 4.25,2.17 1.48,0.82 4.91,2.71 5.04,2.78 0.41,1.88 1.92,6.5 7.14,10.74 0,0 -3.8,-6.14 -3.23,-8.43 0.21,0.13 0.41,0.25 0.62,0.38 1.68,0.99 3.32,2.08 4.98,3.14 1.67,1.06 3.27,2.21 4.88,3.3 0.03,0.02 0.06,0.04 0.09,0.06 0.16,1.38 0.77,5.37 2.53,7.93 0,0 -1.42,-5.09 -0.74,-6.66 0.94,0.68 1.85,1.36 2.75,2.01 1.5,1.09 2.88,2.23 4.23,3.26 1.07,0.82 2.07,1.65 3,2.43 -0.09,0.95 -0.21,3.33 0.51,4.71 l 0.37,-3.97 c 1.07,0.91 2.08,1.7 2.91,2.48 0.9,0.8 1.68,1.51 2.32,2.09 0.86,0.76 1.48,1.32 1.79,1.6 -0.31,-0.3 -0.91,-0.87 -1.73,-1.67 -0.62,-0.6 -1.38,-1.32 -2.25,-2.16 -0.87,-0.84 -1.91,-1.72 -3.01,-2.72 0,0 3.33,0.14 4.15,0.34 C 46.95,29.06 43.68,28 42.32,28.08 41.47,27.31 40.56,26.51 39.57,25.71 38.26,24.63 36.9,23.44 35.44,22.3 c -0.88,-0.68 -1.77,-1.38 -2.68,-2.08 0.6,-0.47 2.24,-1.26 5.85,-0.02 0,0 -3.16,-2.26 -7.58,-1.3 -0.04,-0.03 -0.09,-0.07 -0.13,-0.1 -1.58,-1.14 -3.15,-2.35 -4.8,-3.47 -1.63,-1.12 -3.25,-2.27 -4.9,-3.32 -0.17,-0.11 -0.34,-0.22 -0.5,-0.33 1.81,-1.31 5.69,-1.64 9.69,-0.07 C 29.58,11.21 21.58,7.43 16.65,9.13 16.55,9.06 13.2,7.07 11.73,6.21 10.24,5.37 8.83,4.58 7.51,3.88 6.2,3.18 4.98,2.55 3.89,2.01 2.81,1.46 1.84,1.02 1.06,0.64 0.7,0.48 0.37,0.33 0.09,0.21 0.06,0.14 0.03,0.07 0,0 Z"
             inkscape:connector-curvature="0" /></g><g
           transform="matrix(1.0650241,0,0,1.0650241,456.8825,296.14643)"
           id="g68"
           style="fill:#039d53;fill-opacity:1"
           inkscape:export-xdpi="118.72222"
           inkscape:export-ydpi="118.72222"><path
             id="path70"
             style="fill:#039d53;fill-opacity:1;fill-rule:nonzero;stroke:none"
             d="M 0,0 C -5.48,-4.2 -11.11,-7.77 -16.64,-10.13 11.42,-9.8 42.12,8.7 57.11,61.75 16.89,55.82 -7.15,11.7 -17.71,-8.71 c 3.38,1.18 8.99,3.84 16.93,9.81 0.1,1.89 0.79,6.61 5.07,11.16 -0.11,-0.34 -2.11,-6.27 -1.64,-8.5 2.78,2.23 5.8,4.83 9.08,7.87 0.11,2.05 0.83,7.8 5.52,14.79 -0.12,-0.45 -2.48,-8.71 -1.74,-11.2 3.92,3.81 8.18,8.22 12.76,13.3 -0.3,1.32 -0.58,5.27 4.07,12.14 -0.1,-0.42 -1.92,-7.98 -1.44,-9.18 3.14,3.55 6.42,7.41 9.86,11.61 -0.78,-1.08 -4.36,-5.93 -9.75,-12.35 0.3,-0.37 2.29,-0.11 9.92,3.11 0,0 -7.95,-7.43 -12.29,-5.91 -3.62,-4.2 -7.86,-8.89 -12.5,-13.55 0.92,-0.52 3.69,-1.07 11.58,2.13 0,0 -7.4,-5.84 -15.26,-5.73 C 9.65,8.1 6.72,5.46 3.72,2.98 5.21,2.76 8.7,2.33 11.93,2.64 11.93,2.64 3.64,-0.64 0,0"
             inkscape:connector-curvature="0" /></g><g
           transform="matrix(1.0650241,0,0,1.0650241,437.61622,330.46151)"
           id="g72"
           style="fill:#039d53;fill-opacity:1"
           inkscape:export-xdpi="118.72222"
           inkscape:export-ydpi="118.72222"><path
             id="path74"
             style="fill:#039d53;fill-opacity:1;fill-rule:nonzero;stroke:none"
             d="M 0,0 C 57.9,15.21 60.32,60.67 60.46,73.8 23.25,54.97 4.57,19.1 -3.79,0.66 0.25,2.4 7.63,6.77 18.4,17.71 c -0.26,1.77 -0.4,5.92 2.49,11.19 0,0 1,-1.87 0.63,-4.31 0,0 -0.28,-2.44 0.02,-3.6 2.66,2.85 5.5,6.07 8.53,9.72 -0.45,1.69 -1.32,6.27 0.79,10.88 0,0 0.33,-6.26 2.09,-7.35 2.79,3.48 5.74,7.32 8.83,11.54 -0.23,1.06 -0.87,4.61 0.07,7.14 0,0 0.74,-4.4 1.29,-5.26 1.26,1.74 2.54,3.54 3.84,5.4 -0.15,-0.26 -1.31,-2.29 -3.35,-5.48 0.91,0.09 4.21,0.51 5.96,1.5 -0.29,-0.23 -5.11,-4.05 -7.4,-3.7 -2.1,-3.21 -4.86,-7.21 -8.17,-11.59 0.81,-0.53 3.1,-1.4 8.37,0.11 0,0 -2.34,-4.16 -11.3,-3.91 h -0.01 c -2.56,-3.23 -5.38,-6.59 -8.43,-9.94 0.94,-0.39 3.28,-0.78 8.6,0.72 C 30.86,20.48 23.87,15.44 19.35,16.53 13.54,10.52 7.02,4.72 0,0"
             inkscape:connector-curvature="0" /></g><g
           transform="matrix(1.0650241,0,0,1.0650241,457.90492,401.30691)"
           id="g76"
           style="fill:#039d53;fill-opacity:1"
           inkscape:export-xdpi="118.72222"
           inkscape:export-ydpi="118.72222"><path
             id="path78"
             style="fill:#039d53;fill-opacity:1;fill-rule:nonzero;stroke:none"
             d="M 0,0 C -3.58,-3.39 -9.46,-8.38 -14.95,-10.87 23.62,-12.96 34.76,34.12 40.89,57.34 10.93,34.96 -8.38,4.91 -16.59,-9.62 c 3.07,1.38 9.26,4.67 15.53,11.01 0.16,2 0.9,6.66 4.27,10.42 C 3.12,11.5 1.5,6.12 1.82,4.17 c 2.65,2.64 5.61,5.8 8.86,9.56 -0.43,1.37 -0.94,4.58 1.51,8.84 0,0 0.71,-3.96 0.06,-6.99 2.84,3.36 5.87,7.15 9.08,11.45 -0.52,3.68 0.72,7.37 0.72,7.37 -0.35,-2.85 0.14,-4.36 0.97,-5.1 1.58,2.16 3.21,4.44 4.89,6.84 -0.32,-0.56 -1.89,-3.26 -4.43,-7.15 1.7,-0.92 4.23,0.44 4.47,0.57 -2.35,-2.42 -4.94,-2.85 -6.03,-2.92 -2.22,-3.31 -4.99,-7.22 -8.16,-11.29 0,0 1.46,-1.45 6.95,1.21 C 20.48,16.31 16.44,11.85 11.72,12.8 9,9.44 6.02,6.02 2.86,2.8 3.84,1.82 5.28,1.94 10.8,2.99 10.8,2.99 4.45,-1.11 0,0"
             inkscape:connector-curvature="0" /></g><g
           transform="matrix(1.0650241,0,0,1.0650241,235.35248,419.03957)"
           id="g80"
           inkscape:export-xdpi="118.72222"
           inkscape:export-ydpi="118.72222"><path
             id="path82"
             style="fill:#15155c;fill-opacity:1;fill-rule:nonzero;stroke:none"
             d="m 0,0 c -7.49,4.61 -12.64,11.42 -16.02,19.54 -31.69,34.18 -14.31,95.22 -14.31,95.22 5.8,-4.3 10.73,-8.65 14.91,-12.99 3.47,15 7.09,25.4 7.09,25.4 C 66,52.67 0,0 0,0"
             inkscape:connector-curvature="0" /></g><g
           transform="matrix(1.0650241,0,0,1.0650241,232.91357,451.99141)"
           id="g84"
           style="fill:#039d53;fill-opacity:1"
           inkscape:export-xdpi="118.72222"
           inkscape:export-ydpi="118.72222"><path
             id="path86"
             style="fill:#039d53;fill-opacity:1;fill-rule:nonzero;stroke:none"
             d="M 0,0 C -0.9,0.15 -1.82,0.23 -2.76,0.23 H -2.89 C -3.36,4.06 -4.2,8.43 -5.27,13 v 0.01 c 1.15,1.39 3.36,4.72 2.23,8.8 0,0 -1.78,-3.66 -3.38,-4.14 -1.11,4.33 -2.36,8.74 -3.64,12.99 1.55,1.48 4.85,5.22 4.02,9.65 0,0 -2.72,-5.98 -5.27,-5.54 -0.96,3.06 -1.91,5.98 -2.8,8.65 0.55,1.59 2.18,6.46 2.32,8.81 0,0 -2.43,-4.07 -3.57,-5.07 -1.97,5.77 -3.46,9.82 -3.79,10.71 0.28,-0.88 1.47,-4.72 3.06,-10.18 0.06,-0.2 0.12,-0.4 0.17,-0.6 0,0 -0.7,-0.53 -5.6,2.54 0.3,-0.31 4.77,-4.83 6.7,-6.35 0.55,-1.98 1.14,-4.09 1.74,-6.28 0.22,-0.8 0.43,-1.6 0.65,-2.42 -0.65,-0.72 -2.57,-1.43 -8.11,2.32 0,0 3.27,-5.34 9.29,-6.82 0.46,-1.78 0.91,-3.58 1.36,-5.39 0.58,-2.39 1.14,-4.78 1.67,-7.13 -0.93,-0.53 -3.06,-0.94 -6.99,2 0,0 3.22,-5.76 8.07,-7.03 0.02,-0.08 0.03,-0.16 0.05,-0.24 0.37,-1.99 0.8,-3.9 1.07,-5.73 0.28,-1.83 0.63,-3.56 0.79,-5.16 0.05,-0.46 0.1,-0.9 0.16,-1.33 -5.1,-0.71 -9.43,-3.75 -11.85,-7.98 -16.52,41.96 -7.9,81.64 -7.9,81.64 C 1.53,53.46 3.21,22.42 0,0"
             inkscape:connector-curvature="0" /></g><g
           transform="matrix(1.0650241,0,0,1.0650241,257.78188,455.04803)"
           id="g88"
           style="fill:#039d53;fill-opacity:1"
           inkscape:export-xdpi="118.72222"
           inkscape:export-ydpi="118.72222"><path
             id="path90"
             style="fill:#039d53;fill-opacity:1;fill-rule:nonzero;stroke:none"
             d="m 0,0 c -2.22,1.04 -4.59,1.61 -7.06,1.61 -1.09,0 -2.16,-0.11 -3.2,-0.33 0,1.37 -0.03,2.91 -0.08,4.6 -0.03,1.64 -0.14,3.41 -0.21,5.29 -0.04,0.54 -0.07,1.08 -0.11,1.64 1.44,1.03 4.82,3.8 6.32,7.92 -0.23,-0.22 -4.24,-4.06 -6.66,-3.33 -0.17,1.93 -0.33,3.93 -0.58,5.94 -0.22,2.14 -0.52,4.3 -0.83,6.46 -0.27,2.17 -0.67,4.31 -1.02,6.43 -0.32,2.12 -0.8,4.19 -1.18,6.19 -0.36,2.01 -0.87,3.93 -1.28,5.76 -0.4,1.83 -0.86,3.54 -1.29,5.11 -0.22,0.81 -0.42,1.58 -0.62,2.32 0.71,0.8 3.12,3.78 2.35,6.91 0,0 -2.37,-4.39 -3.09,-4.06 -0.29,0.95 -0.62,1.7 -0.84,2.42 -0.39,1.25 -0.66,2.13 -0.8,2.56 0.12,-0.43 0.37,-1.32 0.72,-2.59 0.2,-0.69 0.42,-1.49 0.67,-2.39 -0.24,-0.15 -1.42,-0.48 -5.84,2.22 0.12,-0.24 2.1,-4.13 6.62,-5.28 0.17,-0.69 0.34,-1.42 0.53,-2.18 0.38,-1.59 0.79,-3.31 1.14,-5.14 0.35,-1.84 0.8,-3.76 1.11,-5.78 0.32,-2.01 0.74,-4.07 1,-6.2 0.28,-2.12 0.62,-4.26 0.83,-6.43 0.25,-2.15 0.48,-4.31 0.64,-6.45 0.18,-1.92 0.29,-3.83 0.4,-5.69 -0.99,-0.36 -3.18,-0.42 -6.14,3.84 0.08,-0.33 1.4,-5.48 6.35,-8.53 0.02,-0.59 0.04,-1.17 0.06,-1.74 0.03,-1.86 0.08,-3.62 0.06,-5.25 0,-1.89 -0.03,-3.59 -0.07,-5.05 V 0.79 c -3.67,-1.19 -6.99,-3.66 -9.72,-7.07 -0.03,0.03 -0.04,0.06 -0.04,0.09 2.99,17.67 3.36,41.84 -9.89,61.72 1.22,16.46 5.03,26.83 5.03,26.83 C 2.39,50.41 4.25,20.49 0,0"
             inkscape:connector-curvature="0" /></g><g
           transform="matrix(1.0650241,0,0,1.0650241,361.55091,419.3218)"
           id="g92"
           inkscape:export-xdpi="118.72222"
           inkscape:export-ydpi="118.72222"><path
             id="path94"
             style="fill:#15155c;fill-opacity:1;fill-rule:nonzero;stroke:none"
             d="m 0,0 c 7.582,4.61 12.795,11.42 16.216,19.54 32.078,34.18 14.485,95.22 14.485,95.22 -5.871,-4.3 -10.861,-8.65 -15.092,-12.99 -3.513,15 -7.177,25.4 -7.177,25.4 C -66.808,52.67 0,0 0,0"
             inkscape:connector-curvature="0" /></g><g
           transform="matrix(1.0650241,0,0,1.0650241,364.01975,452.27364)"
           id="g96"
           style="fill:#039d53;fill-opacity:1"
           inkscape:export-xdpi="118.72222"
           inkscape:export-ydpi="118.72222"><path
             id="path98"
             style="fill:#039d53;fill-opacity:1;fill-rule:nonzero;stroke:none"
             d="M 0,0 C 0.911,0.15 1.842,0.23 2.794,0.23 H 2.925 C 3.401,4.06 4.251,8.43 5.334,13 v 0.01 c -1.164,1.39 -3.401,4.72 -2.257,8.8 0,0 1.802,-3.66 3.422,-4.14 1.123,4.33 2.388,8.74 3.684,12.99 -1.569,1.48 -4.909,5.22 -4.069,9.65 0,0 2.753,-5.98 5.334,-5.54 0.972,3.06 1.934,5.98 2.835,8.65 -0.557,1.59 -2.207,6.46 -2.349,8.81 0,0 2.46,-4.07 3.614,-5.07 1.994,5.77 3.502,9.82 3.836,10.71 -0.283,-0.88 -1.488,-4.72 -3.097,-10.18 -0.061,-0.2 -0.122,-0.4 -0.172,-0.6 0,0 0.708,-0.53 5.668,2.54 C 21.48,49.32 16.955,44.8 15.001,43.28 14.445,41.3 13.847,39.19 13.24,37 c -0.223,-0.8 -0.435,-1.6 -0.658,-2.42 0.658,-0.72 2.602,-1.43 8.209,2.32 0,0 -3.31,-5.34 -9.403,-6.82 C 10.922,28.3 10.467,26.5 10.011,24.69 9.424,22.3 8.857,19.91 8.321,17.56 c 0.941,-0.53 3.097,-0.94 7.075,2 0,0 -3.259,-5.76 -8.169,-7.03 C 7.207,12.45 7.197,12.37 7.177,12.29 6.802,10.3 6.367,8.39 6.094,6.56 5.81,4.73 5.456,3 5.294,1.4 5.243,0.94 5.193,0.5 5.132,0.07 10.294,-0.64 14.677,-3.68 17.127,-7.91 33.849,34.05 25.124,73.73 25.124,73.73 -1.549,53.46 -3.249,22.42 0,0"
             inkscape:connector-curvature="0" /></g><g
           transform="matrix(1.0650241,0,0,1.0650241,338.84694,455.33026)"
           id="g100"
           style="fill:#039d53;fill-opacity:1"
           inkscape:export-xdpi="118.72222"
           inkscape:export-ydpi="118.72222"><path
             id="path102"
             style="fill:#039d53;fill-opacity:1;fill-rule:nonzero;stroke:none"
             d="m 0,0 c 2.247,1.04 4.646,1.61 7.146,1.61 1.104,0 2.187,-0.11 3.24,-0.33 0,1.37 0.03,2.91 0.081,4.6 0.03,1.64 0.141,3.41 0.212,5.29 0.041,0.54 0.071,1.08 0.112,1.64 -1.458,1.03 -4.879,3.8 -6.398,7.92 0.233,-0.22 4.292,-4.06 6.742,-3.33 0.172,1.93 0.334,3.93 0.587,5.94 0.222,2.14 0.526,4.3 0.84,6.46 0.273,2.17 0.678,4.31 1.032,6.43 0.324,2.12 0.81,4.19 1.195,6.19 0.364,2.01 0.881,3.93 1.296,5.76 0.404,1.83 0.87,3.54 1.305,5.11 0.223,0.81 0.425,1.58 0.628,2.32 -0.719,0.8 -3.158,3.78 -2.379,6.91 0,0 2.399,-4.39 3.128,-4.06 0.294,0.95 0.628,1.7 0.85,2.42 0.395,1.25 0.668,2.13 0.81,2.56 -0.121,-0.43 -0.374,-1.32 -0.729,-2.59 -0.202,-0.69 -0.425,-1.49 -0.678,-2.39 0.243,-0.15 1.437,-0.48 5.912,2.22 -0.122,-0.24 -2.126,-4.13 -6.702,-5.28 -0.172,-0.69 -0.344,-1.42 -0.536,-2.18 -0.385,-1.59 -0.8,-3.31 -1.154,-5.14 -0.354,-1.84 -0.81,-3.76 -1.124,-5.78 -0.323,-2.01 -0.749,-4.07 -1.012,-6.2 -0.283,-2.12 -0.627,-4.26 -0.84,-6.43 -0.253,-2.15 -0.486,-4.31 -0.648,-6.45 -0.182,-1.92 -0.293,-3.83 -0.405,-5.69 1.002,-0.36 3.219,-0.42 6.215,3.84 -0.08,-0.33 -1.417,-5.48 -6.427,-8.53 -0.02,-0.59 -0.041,-1.17 -0.061,-1.74 -0.03,-1.86 -0.081,-3.62 -0.061,-5.25 0,-1.89 0.031,-3.59 0.071,-5.05 V 0.79 c 3.715,-1.19 7.076,-3.66 9.839,-7.07 0.031,0.03 0.041,0.06 0.041,0.09 C 19.101,11.48 18.726,35.65 32.139,55.53 30.904,71.99 27.047,82.36 27.047,82.36 -2.419,50.41 -4.302,20.49 0,0"
             inkscape:connector-curvature="0" /></g><g
           transform="matrix(1.0650241,0,0,1.0650241,419.78271,685.97721)"
           id="g104"
           style="fill:#121a61;fill-opacity:1"
           inkscape:export-xdpi="118.72222"
           inkscape:export-ydpi="118.72222"><path
             id="path106"
             style="fill:#121a61;fill-opacity:1;fill-rule:nonzero;stroke:none"
             d="m 0,0 c 0,0.01 -0.01,0.03 -0.02,0.04 -1.53,2.89 -4.78,5.05 -8.01,5.05 -1.58,0 -3.05,-0.45 -4.29,-1.24 -2.14,1.43 -5.08,2.26 -7.3,2.26 -1.624,0 -3.117,-0.539 -4.312,-1.449 -1.11,-0.845 -2.592,-1.137 -3.888,-0.619 -0.787,0.315 -1.645,0.488 -2.54,0.488 -2.67,0 -4.98,-1.52 -6.16,-3.76 -0.63,0.03 -1.27,0.03 -1.92,0.03 -3.17,0 -5.92,-1.9 -7.32,-4.71 -4.12,0.22 -6.09,-2.66 -10.99,-7.56 -4.34,-4.34 -7.14,-3.83 -7.57,-8.62 -1.96,-1.24 -3.69,-3.35 -5.08,-6.06 -2.3,3.75 -3.85,5.68 -3.85,5.68 -0.76,0.98 -1.51,1.93 -2.26,2.86 2.56,2.51 5,6.1 6.85,10.36 2.22,5.12 2.63,10.35 2.08,14.39 3.34,2.14 5.93,5.36 7.28,9.16 1.19,-0.5 2.47,-0.77 3.8,-0.77 4.06,0 7.62,2.51 9.6,6.28 0.44,-0.33 1.03,-0.53 1.7,-0.53 1.26,0 2.3,0.74 2.44,1.68 1.46,-0.1 3.1,-0.16 4.82,-0.16 1.8,0 3.5,0.06 5.01,0.17 2.83,-3.76 8.92,-6.36 15.99,-6.36 0.7,0 1.39,0.03 2.07,0.08 0.87,-3.17 3.78,-5.5 7.23,-5.5 0.21,0 0.42,0.01 0.63,0.03 0.64,-1.38 1.39,-2.67 2.13,-3.9 C -2.72,5.41 -1.45,3.72 0,2.49 Z m -82.19,43.28 c -3.93,-0.5 -6.96,-3.86 -6.96,-7.92 0,-1.57 0.45,-3.03 1.22,-4.26 -2.84,-1.58 -4.74,-4.41 -4.74,-7.64 0,-1.02 0.19,-2.01 0.55,-2.92 v -0.01 c -1.04,-2.96 -1.71,-7.78 -1.71,-13.21 0,-2.37 0.13,-4.62 0.35,-6.65 -6.37,4.85 -12.33,7.44 -18.1,8.05 1.13,2.1 2.19,4.46 3.11,6.99 1.14,3.14 1.94,6.2 2.4,9 2.98,1.32 5.07,4.44 5.07,8.07 0,1.08 -0.19,2.12 -0.53,3.08 4.55,0.05 8.2,2.99 8.2,6.61 0,0.74 -0.16,1.46 -0.44,2.13 0.32,-0.05 0.65,-0.07 0.98,-0.07 3.3,0 6.01,2.15 6.41,4.93 3.87,0.93 6.92,3.43 8.02,6.58 0.14,-0.01 0.29,-0.01 0.44,-0.01 2.43,0 4.51,1.16 5.43,2.83 h 7.37 v -1.79 c -5.11,-0.25 -9.52,-3.47 -11.8,-8.12 -2.94,-0.22 -5.25,-2.67 -5.27,-5.67 M -142,-5.47 c -4.24,-4.11 -8.01,-8.7 -11.34,-13.53 0.18,0.83 0.28,1.78 0.28,2.78 0,2.87 -0.82,6.35 -1.92,7.1 1.17,0.5 1.93,2.07 1.92,3.76 -0.02,2.15 -1.4,3.89 -3.11,3.89 h -0.03 c 1.05,0.9 2.13,2.59 3.14,4.33 1.89,3.29 2.03,6.96 1.09,7.5 -0.24,0.14 -0.58,0.09 -0.98,-0.11 1.01,1.49 1.89,3.65 2.56,6.04 1.02,3.63 1.38,8.1 0.7,10.43 0.79,0.05 1.43,0.63 1.57,1.4 0.31,-0.41 0.81,-0.67 1.37,-0.67 0.12,0 0.23,0.01 0.34,0.04 -0.03,-0.33 -0.05,-0.72 -0.05,-1.13 0,-0.33 0.01,-0.65 0.03,-0.94 -0.51,-0.92 -0.81,-2.07 -0.81,-3.31 0,-1.64 0.53,-3.11 1.37,-4.12 0.61,-2.38 2.33,-3.58 4.93,-6.94 0.3,-0.38 -0.21,-1.74 0.11,-2.18 2.3,-3.19 4.58,-6.03 6.55,-7.7 -2.55,-1.89 -5.11,-4.12 -7.72,-6.64 M 27.24,-48.18 c 1.36,1.36 2.26,3.77 2.26,6.51 0,2.81 -0.95,5.27 -2.37,6.6 0.32,1.01 0.49,2.13 0.49,3.3 0,4.52 -2.951,7.846 -5.984,9.362 l -0.016,4.458 4.88,-0.27 -9.16,6.36 c -1.06,4.09 -4.06,7.04 -7.59,7.04 -0.283,0 -0.563,-0.019 -0.838,-0.056 C 8.052,-4.991 7.194,-4.57 6.839,-3.779 6.037,-1.993 4.863,-0.644 3.5,-0.01 V 0.56 C 4.15,0.37 4.84,0.28 5.56,0.28 c 4.024,0 7.586,2.883 10.021,6.826 0.387,0.626 0.911,1.158 1.529,1.559 2.905,1.882 4.89,4.997 4.89,9.015 0,1.827 -0.396,3.551 -1.102,5.071 -0.752,1.622 -0.572,3.48 0.446,4.949 0.91,1.313 1.536,2.79 1.536,4.35 0,3.225 -1.288,6.096 -3.282,7.911 -1.172,1.068 -1.933,2.527 -1.922,4.112 0.027,3.562 -1.598,5.383 -3.235,6.302 -1.821,1.023 -3.214,2.705 -3.718,4.733 -0.718,2.888 -2.621,6.489 -7.613,7.342 -1,2.81 -3.83,4.83 -7.17,4.83 -0.62,0 -1.23,-0.07 -1.81,-0.21 -1.5,2.73 -4.77,4.62 -8.57,4.62 -0.58,0 -1.718,-0.028 -2.268,-0.118 -2.8,2.05 -5.882,3.278 -9.882,3.278 -3.93,0 -7.52,-1.2 -10.3,-3.17 -1.03,0.28 -2.15,0.43 -3.32,0.43 -4.7,0 -8.832,-2.455 -10.01,-5.58 h -1.7 c 3.712,15.75 -9.75,24.94 -16.78,26.68 h -0.01 c -2.32,3.91 -7.63,7.72 -10.04,7.72 -0.95,0 -1.84,-0.35 -2.62,-0.97 -0.46,1.99 -2.34,3.49 -4.59,3.49 -0.54,0 -1.058,-0.086 -1.54,-0.245 -1.131,-0.372 -2.379,-0.115 -3.365,0.554 -1.22,0.826 -2.696,1.308 -4.285,1.311 -2.504,0.005 -4.792,-0.897 -6.183,-2.79 -0.78,0.21 -1.809,0.333 -2.709,0.333 -3.62,0 -6.348,-2.133 -6.448,-4.373 -1.35,0.75 -2.89,1.17 -4.51,1.17 -5.28,0 -9.59,-4.46 -9.9,-10.08 -0.69,0.29 -1.43,0.45 -2.21,0.45 -3.56,0 -6.45,-3.32 -6.45,-7.42 h -2.85 c -0.45,1.76 -1.47,3 -2.67,3 -0.52,0 -1.01,-0.23 -1.43,-0.64 0.01,0.05 0.01,0.09 0.01,0.14 0,5.02 -3.1,9.09 -6.92,9.09 -1.3,0 -2.51,-0.47 -3.55,-1.29 -1.54,4.32 -5,5.12 -9.45,5.12 -2.94,0 -7.09,-2.91 -9.96,-5.81 -1.06,0.47 -2.25,0.73 -3.5,0.73 -3.88,0 -7.13,-2.48 -7.93,-5.8 -0.68,0.35 -1.473,0.621 -2.31,0.55 -2.889,-0.246 -4.025,-1.598 -4.445,-2.852 -0.333,-0.991 -1.179,-1.743 -2.209,-1.915 -2.515,-0.42 -4.993,-3.453 -5.306,-4.823 -0.08,-0.35 -0.14,-0.67 -0.16,-0.95 -0.72,1.02 -2.04,0.96 -4.3,-1.21 -3,-3.13 -2.46,-4.56 -2.46,-10.17 0,-1.56 0.11,-3.04 0.31,-4.36 -0.1,0.02 -0.21,0.03 -0.31,0.03 -1.93,0 -3.5,-2.62 -3.5,-5.84 0,-1.33 0.27,-2.56 0.73,-3.54 -2.48,-1.8 -4.12,-4.9 -4.12,-8.43 0,-1.77 0.41,-3.44 1.14,-4.88 l -5.009,-6.445 3.019,-0.465 c -0.07,-0.42 -0.51,-2.005 -0.51,-2.445 0,-2.39 1.43,-3.325 2.94,-4.365 -0.17,-1.03 -0.732,-2.953 -0.732,-4.093 0,-5.43 2.584,-8.25 4.334,-10.417 -1.459,-3.333 1.928,-7.36 3.958,-8.3 -0.78,-1.1 -1.23,-2.46 -1.23,-3.95 0,-3.09 1.96,-5.67 4.58,-6.33 -0.54,-0.21 -0.93,-0.74 -0.93,-1.36 0,-0.32 0.1,-0.62 0.27,-0.86 -3.16,1.85 -6.97,2.93 -11.06,2.93 -3.48,0 -6.75,-0.78 -9.59,-2.14 -0.95,0.31 -1.96,0.48 -3.01,0.48 -4.14,0 -9.601,-5.612 -9.905,-5.512 -1.336,0.439 -2.609,0.048 -3.495,-1.228 v 3.26 l -4.37,-6.07 c -1.38,-1.46 -2.36,-3.31 -2.77,-5.36 -0.07,0.01 -0.15,0.013 -0.22,0.01 -3.976,-0.187 -5.511,-2.564 -6.093,-4.569 -0.439,-1.515 -1.414,-2.816 -2.726,-3.692 -1.518,-1.013 -2.521,-2.742 -2.521,-4.709 0,-0.25 0.02,-0.49 0.05,-0.73 -2.32,-1.54 -3.73,-4.09 -3.73,-7.44 0,-2.483 0.261,-4.891 1.518,-6.814 1.377,-2.108 1.025,-4.919 -0.646,-6.802 -1.297,-1.464 -1.945,-1.96 -1.872,-5.174 0.167,-7.307 5.33,-8.19 5.33,-8.31 0,-2.551 1.305,-4.794 3.284,-6.103 1.362,-0.902 2.468,-2.189 2.803,-3.788 0.591,-2.826 3.36,-6.019 5.834,-6.417 2.022,-0.325 3.484,-2.07 4.312,-3.943 0.948,-2.144 3.307,-4.599 8.737,-6.515 2.742,-0.967 5.438,-2.073 8.034,-3.383 2.821,-1.424 6.277,-2.273 9.916,-2.431 11.63,-0.5 15.75,4.99 15.75,12.06 0,2.84 -1.17,5.46 -3.16,7.58 0.03,0.3 0.04,0.61 0.04,0.92 0,3.408 -1.495,6.434 -3.8,8.316 -1.261,1.03 -1.251,2.995 -0.019,4.06 1.729,1.493 2.819,3.676 2.819,6.114 0,0.91 -0.15,1.79 -0.44,2.61 3.06,0.67 5.4,3.35 5.65,6.63 3.082,0.763 5.564,2.962 6.614,5.806 0.483,1.308 1.901,1.964 3.215,1.497 1.977,-0.703 4.106,-1.083 6.331,-1.083 2.13,0 4.17,0.35 6.08,1 -0.01,-0.08 -0.01,-0.15 -0.01,-0.23 0,-1.11 0.49,-2.11 1.26,-2.79 -4.72,-13.42 -6.5,-23.57 -6.5,-23.57 -13.33,-1.25 -6.25,-24.17 -6.25,-24.17 6,-20.17 18.13,-14.53 18.13,-14.53 14.54,-24.05 14.79,-32.46 14.79,-32.46 0.67,-6.84 -7.2,-12.19 -7.2,-12.19 l 1.7,-3.42 c -6.17,-8.15 -20.18,-13.07 -20.18,-13.07 21.25,-28.75 22.68,-47.83 22.68,-47.83 l 78,-2.75 c 0.42,23.67 22.58,50.42 22.58,50.42 -9.29,3.41 -19.33,11.08 -19.33,11.08 l 0.25,5 c 0,0 -5.92,4.49 -6.67,11.75 -0.75,7.26 14.92,33.47 14.92,33.47 6.25,-1.03 13.45,-0.94 18.08,18.28 5,20.75 -6.83,20.25 -6.83,20.25 -0.8,5.1 -1.81,9.88 -2.94,14.32 -0.97,3.77 -2.03,7.3 -3.13,10.58 2.8,1.42 5.69,3.22 8.54,5.35 0.54,0.4 1.07,0.81 1.58,1.23 2.08,1.65 3.97,3.37 5.65,5.11 0.53,-0.22 1.12,-0.34 1.74,-0.34 0.8,0 1.55,0.2 2.19,0.56 1.81,-2.21 5.12,-3.68 8.91,-3.68 1.13,0 2.21,0.13 3.23,0.38 -0.01,-0.16 -0.02,-0.32 -0.02,-0.49 0,-0.89 0.21,-1.7 0.55,-2.31 -1.29,-1.96 -2.05,-4.45 -2.05,-7.16 0,-0.97 0.1,-1.91 0.29,-2.8 h -3.91 l 0.67,-1.5 c -1.74,-0.74 -3.13,-1.94 -3.9,-3.38 -11.77,0.46 -15.775,-2.433 -15.85,-7.08 -0.054,-3.36 4.39,-8.6 9.45,-13.92 4.08,-4.28 7.13,-8.37 13.25,-9.12 3.18,-0.39 9.53,1.73 10.29,1.22 l -0.29,-1.72 4.625,0.625 c 1.43,-0.52 1.235,-1.005 2.935,-1.005 4.78,0 8.84,2.31 10.26,5.52 0.14,-0.01 0.29,-0.01 0.43,-0.01 4.72,0 8.63,3.33 9.37,7.7 0.49,-0.09 0.99,-0.14 1.5,-0.14 4.397,0 7.951,3.391 7.94,7.58 v 0 c 3.5,0.28 8.29,2.87 7.82,15.89 -0.09,2.35 -0.06,4.6 -0.14,6.63"
             inkscape:connector-curvature="0" /></g><g
           transform="matrix(1.0650241,0,0,1.0650241,335.8162,468.70164)"
           id="g108"
           inkscape:export-xdpi="118.72222"
           inkscape:export-ydpi="118.72222"><path
             id="path110"
             style="fill:#ffffff;fill-opacity:1;fill-rule:nonzero;stroke:none"
             d="m 0,0 c -19.73,2.34 -35.02,1.71 -35.02,1.71 0,0 -15.39,0.63 -35.2,-1.73 -2.66,6.73 -6.74,15.1 -12.97,24.69 7.43,4.14 16.33,10.29 21.45,18.01 7.45,-4.67 16.82,-7.29 26.78,-7.29 9.75,0 19.01,2.55 26.42,7.09 C -3.37,34.8 5.53,28.69 12.98,24.56 8.82,18.35 3.65,9.61 0,0 m -5.2,55.2 c -6.19,-7.3 -17.2,-12.16 -29.76,-12.16 -12.9,0 -24.17,5.13 -30.26,12.76 0.01,-0.13 0.01,-0.25 0.01,-0.38 0,-9.69 -12.53,-20.27 -29.24,-27.87 8.18,-11.3 13.27,-21.04 16.42,-28.63 4.63,-11.13 5.12,-17.63 5.12,-17.63 l 76,-2.75 C 3.21,-14.67 5.12,-7.64 7.77,-1.05 13.05,12.03 21.3,23.34 24.42,27.38 7.64,34.93 -5.02,45.5 -5.2,55.2"
             inkscape:connector-curvature="0" /></g><g
           transform="matrix(1.0650241,0,0,1.0650241,335.8162,468.70164)"
           id="g112"
           inkscape:export-xdpi="118.72222"
           inkscape:export-ydpi="118.72222"><path
             id="path114"
             style="fill:none;stroke:#15155c;stroke-width:1.5;stroke-linecap:butt;stroke-linejoin:miter;stroke-miterlimit:10;stroke-dasharray:none;stroke-opacity:1"
             d="m 0,0 c -19.73,2.34 -35.02,1.71 -35.02,1.71 0,0 -15.39,0.63 -35.2,-1.73 -2.66,6.73 -6.74,15.1 -12.97,24.69 7.43,4.14 16.33,10.29 21.45,18.01 7.45,-4.67 16.82,-7.29 26.78,-7.29 9.75,0 19.01,2.55 26.42,7.09 C -3.37,34.8 5.53,28.69 12.98,24.56 8.82,18.35 3.65,9.61 0,0 Z m -5.2,55.2 c -6.19,-7.3 -17.2,-12.16 -29.76,-12.16 -12.9,0 -24.17,5.13 -30.26,12.76 0.01,-0.13 0.01,-0.25 0.01,-0.38 0,-9.69 -12.53,-20.27 -29.24,-27.87 8.18,-11.3 13.27,-21.04 16.42,-28.63 4.63,-11.13 5.12,-17.63 5.12,-17.63 l 76,-2.75 C 3.21,-14.67 5.12,-7.64 7.77,-1.05 13.05,12.03 21.3,23.34 24.42,27.38 7.64,34.93 -5.02,45.5 -5.2,55.2 Z"
             inkscape:connector-curvature="0" /></g><g
           transform="matrix(1.0650241,0,0,1.0650241,306.68492,663.75644)"
           id="g116"
           inkscape:export-xdpi="118.72222"
           inkscape:export-ydpi="118.72222"><path
             id="path118"
             style="fill:#ffffff;fill-opacity:1;fill-rule:nonzero;stroke:none"
             d="m 0,0 c 0,-8.527 -3.335,-15.439 -7.448,-15.439 -4.114,0 -7.449,6.912 -7.449,15.439 0,8.527 3.335,15.439 7.449,15.439 C -3.335,15.439 0,8.527 0,0"
             inkscape:connector-curvature="0" /></g><g
           transform="matrix(1.0650241,0,0,1.0650241,321.77205,651.53817)"
           id="g120"
           inkscape:export-xdpi="118.72222"
           inkscape:export-ydpi="118.72222"><path
             id="path122"
             style="fill:#ffffff;fill-opacity:1;fill-rule:nonzero;stroke:none"
             d="m 0,0 c -3.28,-7.164 -8.191,-11.491 -10.973,-10.217 -2.782,1.274 -2.613,8.003 0.666,15.167 3.28,7.163 7.968,11.357 10.75,10.083 C 3.225,13.759 3.28,7.164 0,0"
             inkscape:connector-curvature="0" /></g><g
           transform="matrix(1.0650241,0,0,1.0650241,334.42177,639.31393)"
           id="g124"
           inkscape:export-xdpi="118.72222"
           inkscape:export-ydpi="118.72222"><path
             id="path126"
             style="fill:#ffffff;fill-opacity:1;fill-rule:nonzero;stroke:none"
             d="m 0,0 c -2.992,-5.81 -8.476,-9.78 -10.767,-8.6 -2.292,1.18 -1.076,7.884 1.916,13.694 2.993,5.81 8.459,9.43 10.75,8.25 C 4.191,12.164 2.992,5.81 0,0"
             inkscape:connector-curvature="0" /></g><g
           transform="matrix(1.0650241,0,0,1.0650241,344.25471,625.21397)"
           id="g128"
           inkscape:export-xdpi="118.72222"
           inkscape:export-ydpi="118.72222"><path
             id="path130"
             style="fill:#ffffff;fill-opacity:1;fill-rule:nonzero;stroke:none"
             d="m 0,0 c -3.742,-5.462 -8.17,-8.149 -10.333,-6.667 -2.164,1.483 -1.069,6.176 2.673,11.638 3.741,5.462 7.913,7.845 10.077,6.362 C 4.58,9.851 3.742,5.462 0,0"
             inkscape:connector-curvature="0" /></g><g
           transform="matrix(1.0650241,0,0,1.0650241,350.51386,614.72508)"
           id="g132"
           inkscape:export-xdpi="118.72222"
           inkscape:export-ydpi="118.72222"><path
             id="path134"
             style="fill:#ffffff;fill-opacity:1;fill-rule:nonzero;stroke:none"
             d="m 0,0 c -2.187,-3.259 -5.113,-5.128 -6.535,-4.174 -1.421,0.954 -0.801,4.37 1.386,7.629 2.187,3.259 5.113,5.128 6.535,4.174 C 2.808,6.675 2.187,3.259 0,0"
             inkscape:connector-curvature="0" /></g><g
           transform="matrix(1.0650241,0,0,1.0650241,275.07181,651.53817)"
           id="g136"
           inkscape:export-xdpi="118.72222"
           inkscape:export-ydpi="118.72222"><path
             id="path138"
             style="fill:#ffffff;fill-opacity:1;fill-rule:nonzero;stroke:none"
             d="M 0,0 C 3.28,-7.164 8.191,-11.491 10.973,-10.217 13.755,-8.943 13.586,-2.214 10.307,4.95 7.027,12.113 2.339,16.307 -0.443,15.033 -3.225,13.759 -3.28,7.164 0,0"
             inkscape:connector-curvature="0" /></g><g
           transform="matrix(1.0650241,0,0,1.0650241,262.4222,639.31393)"
           id="g140"
           inkscape:export-xdpi="118.72222"
           inkscape:export-ydpi="118.72222"><path
             id="path142"
             style="fill:#ffffff;fill-opacity:1;fill-rule:nonzero;stroke:none"
             d="m 0,0 c 2.992,-5.81 8.476,-9.78 10.767,-8.6 2.292,1.18 1.076,7.884 -1.916,13.694 -2.993,5.81 -8.459,9.43 -10.75,8.25 C -4.191,12.164 -2.992,5.81 0,0"
             inkscape:connector-curvature="0" /></g><g
           transform="matrix(1.0650241,0,0,1.0650241,252.58915,625.21397)"
           id="g144"
           inkscape:export-xdpi="118.72222"
           inkscape:export-ydpi="118.72222"><path
             id="path146"
             style="fill:#ffffff;fill-opacity:1;fill-rule:nonzero;stroke:none"
             d="M 0,0 C 3.742,-5.462 8.17,-8.149 10.333,-6.667 12.497,-5.184 11.402,-0.491 7.66,4.971 3.919,10.433 -0.253,12.816 -2.417,11.333 -4.58,9.851 -3.742,5.462 0,0"
             inkscape:connector-curvature="0" /></g><g
           transform="matrix(1.0650241,0,0,1.0650241,246.33011,614.72508)"
           id="g148"
           inkscape:export-xdpi="118.72222"
           inkscape:export-ydpi="118.72222"><path
             id="path150"
             style="fill:#ffffff;fill-opacity:1;fill-rule:nonzero;stroke:none"
             d="M 0,0 C 2.187,-3.259 5.113,-5.128 6.535,-4.174 7.956,-3.22 7.336,0.196 5.149,3.455 2.962,6.714 0.036,8.583 -1.386,7.629 -2.808,6.675 -2.187,3.259 0,0"
             inkscape:connector-curvature="0" /></g><g
           transform="matrix(1.0650241,0,0,1.0650241,346.09369,577.58971)"
           id="g152"
           inkscape:export-xdpi="118.72222"
           inkscape:export-ydpi="118.72222"><path
             id="path154"
             style="fill:#ffffff;fill-opacity:1;fill-rule:nonzero;stroke:none"
             d="m 0,0 c -7.37,-5.34 -19.58,-12.96 -34.81,-17.82 0,0 -9.07,-3.63 -26.66,1.62 -10.51,3.14 -21.08,10.52 -27.88,15.95 -4.58,3.66 -7.46,6.44 -7.46,6.44 0,0 1.44,1.44 4.13,3.57 12.24,9.68 50.33,33.53 95.95,-0.11 C 4.75,8.56 6.24,7.4 7.73,6.19 7.73,6.19 4.97,3.61 0,0 m 17.69,19.97 c -1.26,0.75 -3.76,-0.18 -6.45,-2.05 -12.16,12.83 -56.17,38.56 -56.17,38.56 0,0 -45.71,-28.71 -55.81,-38.45 -2.63,1.79 -5.06,2.68 -6.29,1.94 -2.92,-1.75 -3.06,-8.51 -0.17,-17.25 2.89,-8.74 5.34,-10.75 9.17,-10.56 1.23,0.06 3.04,0.49 4.69,1.44 16.75,-17.31 48.41,-34.8 48.41,-34.8 0,0 31.73,17.7 48.48,35.08 1.76,-1.15 3.8,-1.65 5.14,-1.72 3.83,-0.19 6.28,1.82 9.17,10.56 2.89,8.74 2.75,15.5 -0.17,17.25"
             inkscape:connector-curvature="0" /></g><g
           transform="matrix(1.0650241,0,0,1.0650241,298.51916,50.711731)"
           id="g156"
           style="fill:#121a61;fill-opacity:1"
           inkscape:export-xdpi="118.72222"
           inkscape:export-ydpi="118.72222"><path
             id="path158"
             style="fill:#121a61;fill-opacity:1;fill-rule:nonzero;stroke:none"
             d="m 0,0 c -24.52,51.62 -64.04,89.46 -115.81,112.62 -14.56,6.51 -30.09,11.79 -46.56,15.75 2.62,5.03 5.12,10.14 7.47,15.31 16.12,35.45 25.54,74 25.54,110.61 0,29.98 -5.91,60.02 -16.4,88.2 -7.69,20.72 -17.87,40.44 -29.99,58.39 l 73.42,40.7 c 13.1,-19.67 24.26,-41.36 32.73,-63.87 32.99,10.3 69.6,8.8 69.6,8.8 0,0 36.61,1.5 69.6,-8.8 8.47,22.51 19.63,44.2 32.73,63.87 l 73.42,-40.7 c -12.12,-17.95 -22.3,-37.67 -29.99,-58.39 -10.49,-28.18 -16.4,-58.22 -16.4,-88.2 0,-36.61 9.42,-75.16 25.54,-110.61 2.35,-5.17 4.85,-10.28 7.47,-15.31 -16.47,-3.96 -32,-9.24 -46.56,-15.75 C 64.04,89.46 24.52,51.62 0,0"
             inkscape:connector-curvature="0" /></g><g
           transform="matrix(1.0650241,0,0,1.0650241,298.51916,73.548511)"
           id="g160"
           inkscape:export-xdpi="118.72222"
           inkscape:export-ydpi="118.72222"><path
             id="path162"
             style="fill:#ffffff;fill-opacity:1;fill-rule:nonzero;stroke:none"
             d="m 0,0 c -25.559,44.786 -63.078,77.456 -111.759,99.234 -11.55,5.164 -24.361,10.043 -36.944,13.646 19,42.875 29.265,87.944 29.265,124.968 0,30.476 -6.118,51.679 -17.024,86.661 -5.694,18.263 -15.178,32.808 -25.185,51.403 l 56.008,31.047 c 12.749,-18.767 21.012,-39.629 28.123,-58.528 l 4.991,1.442 c 47.377,13.682 97.662,13.647 145.02,-0.102 l 4.614,-1.34 c 7.11,18.899 16.251,40.886 28.529,58.528 l 56.008,-31.047 C 151.571,359.691 143.117,342.44 136.458,324.5 c -11.291,-30.337 -17.019,-61.176 -17.019,-91.652 0,-37.025 11.254,-80.947 29.588,-119.781 C 136.443,109.465 123.309,104.398 111.76,99.234 63.078,77.456 25.559,44.786 0,0"
             inkscape:connector-curvature="0" /></g><g
           transform="matrix(1.0650241,0,0,1.0650241,381.05843,263.82295)"
           id="g164"
           style="fill:#121a61;fill-opacity:1"
           inkscape:export-xdpi="118.72222"
           inkscape:export-ydpi="118.72222"><path
             id="path166"
             style="fill:#121a61;fill-opacity:1;fill-rule:nonzero;stroke:none"
             d="m 0,0 c -0.39,-0.63 -0.77,-1.26 -1.18,-1.88 -15.76,-24.78 -43.4,-42.04 -75.32,-42.04 -42.16,0 -77.57,28.16 -87.53,67 h 9.48 c 10.05,-33.89 41.99,-58.67 79.05,-58.67 28.54,0 54.94,14.47 69.57,36.69 0.52,0.79 1.03,1.59 1.52,2.4 l -2.6,1.62 -5.21,3.27 -2.41,1.5 c -0.43,-0.84 -0.88,-1.67 -1.35,-2.48 -12.4,-21.42 -37.64,-32.21 -61.52,-31.62 -29.58,0.72 -56.09,21.47 -64.93,47.29 h 10.84 c 8.34,-21.56 29.37,-37.07 53.57,-37.88 0.67,-0.03 1.34,-0.04 2.02,-0.04 0.33,0 0.68,0.04 1.03,0.11 v 37.81 h 8.08 v -36.66 c 0.92,0.11 1.84,0.25 2.75,0.4 1.39,0.24 2.76,0.53 4.12,0.86 0.88,0.22 1.76,0.45 2.63,0.71 13.76,4.05 25.45,12.89 33.13,24.42 0.53,0.78 1.03,1.58 1.52,2.39 l -2.91,2.01 -2.59,1.79 -2.31,1.6 c -0.49,-0.81 -1,-1.6 -1.53,-2.38 C -38.12,9.43 -47.15,2.5 -57.39,-1.38 V 23.08 H 9.85 C 7.67,14.94 4.32,7.18 0,0 m -145.94,23.08 c 9.55,-29.15 37.12,-50.55 69.21,-50.55 26.43,0 50.53,12.02 63.12,33.39 L -8.43,2.67 C -22.15,-19.91 -49.02,-33.09 -77,-33.09 c -34.85,0 -64.59,24.11 -74.43,56.17 -2.25,7.32 -3.46,15.05 -3.46,23 0,7.69 1.16,15.13 3.32,22.16 9.82,32.15 40.27,55.84 74.57,55.84 28.13,0 56.13,-14.45 69.8,-37.05 l -5.3,-3.24 c -12.66,21.26 -37.88,34.62 -64.23,34.62 -31.28,0 -59.17,-21.21 -69.01,-50.17 -2.45,-7.18 -3.78,-14.83 -3.78,-22.75 0,-7.8 1.26,-15.33 3.58,-22.41 m 25.57,0 h 35.31 V -4.09 c -12.26,2.3 -23.01,9.61 -30.39,19.36 -1.87,2.46 -3.52,5.08 -4.92,7.81 m -7.87,18.81 v -0.02 c 0.14,-5.32 1.26,-10.63 3.23,-15.71 0.41,-1.04 0.85,-2.07 1.33,-3.08 6.8,-14.58 20.73,-26.61 38.62,-29.97 0.96,-0.19 1.93,-0.35 2.92,-0.47 v 50.85 h -22.33 v 4.48 h 26.45 v -59.63 c -21.9,0.22 -42.41,14.55 -50.84,34.74 -2.58,6.2 -4.03,12.94 -4.03,20 0,4.27 0.53,8.44 1.53,12.43 1.11,4.48 2.81,8.75 4.99,12.73 1.69,3.09 3.68,6.01 5.91,8.72 1.9,2.31 3.98,4.48 6.22,6.46 0.03,0.03 0.06,0.06 0.09,0.08 3.01,2.67 6.29,5.03 9.78,7.02 5.43,3.11 11.37,5.33 17.53,6.46 0.41,0.08 5.2,1.008 8.82,0.84 v -0.01 -4.66 c -18.52,-0.96 -34.46,-10.66 -43.16,-24.91 -0.96,-1.57 -1.83,-3.19 -2.61,-4.86 -1.1,-2.35 -2,-4.8 -2.71,-7.34 -1.15,-4.12 -1.76,-8.47 -1.76,-12.96 0,-0.39 0.01,-0.79 0.02,-1.19 m 70.85,-46.56 c 11.67,4.05 21.36,11.64 27.66,21.26 l 2.66,-1.84 c -6.57,-10.76 -17.29,-19.17 -30.32,-23.2 -0.87,-0.27 -1.74,-0.52 -2.63,-0.74 -1.35,-0.36 -2.73,-0.66 -4.12,-0.91 V 98.91 c 1.39,-0.29 2.76,-0.64 4.12,-1.04 0.88,-0.26 1.76,-0.55 2.63,-0.86 11.19,-3.93 21.14,-11.35 27.95,-19.9 l -2.77,-1.99 c -6.27,7.79 -15.14,14.63 -25.18,18.72 -0.87,0.35 -1.74,0.69 -2.63,0.99 V 47.97 h 21.06 V 43.49 H -60.02 V -5.5 c 0.89,0.25 1.77,0.53 2.63,0.83 M -76.5,135.74 c 32.98,0 61.39,-17.67 76.86,-44.07 C 1.17,90.3 1.94,88.9 2.67,87.47 5.8,81.44 8.27,74.99 9.98,68.24 h -67.37 v 22.78 c 9.01,-4.17 16.95,-10.54 22.68,-17.7 0.6,-0.75 1.18,-1.5 1.72,-2.26 l 2.51,1.8 2.77,1.99 2.46,1.77 c -0.53,0.77 -1.1,1.54 -1.69,2.29 -7.24,9.3 -18.19,17.34 -30.45,21.12 -0.87,0.27 -1.75,0.51 -2.63,0.73 -0.3,0.09 -0.61,0.16 -0.91,0.23 -1.96,0.47 -3.95,0.82 -5.96,1.05 v -33.8 h -50.88 c 8.58,12.59 23.24,21.18 39.75,22.11 0.99,0.06 1.99,0.09 3,0.09 h 0.05 v 10.55 c -0.69,0 -2.37,-0.01 -3.05,-0.04 -4.83,-0.15 -9.54,-0.87 -14.05,-2.1 -0.01,0 -0.03,0 -0.04,-0.01 -16.48,-4.49 -30.25,-15.7 -37.59,-30.6 h -12.67 c 8.81,25.6 35.09,45.81 64.87,47.09 24.33,1.05 50.32,-12.38 62.67,-32.98 0.48,-0.81 0.95,-1.63 1.39,-2.47 l 2.34,1.43 5.31,3.26 2.14,1.31 c -0.47,0.83 -0.95,1.64 -1.44,2.45 -14.36,23.26 -41.09,38.75 -70.41,38.75 -37.12,0 -69.1,-24.86 -79.1,-58.84 h -9.32 c 10.12,38.84 45.42,67.5 87.42,67.5 m -1,7 c -53.39,0 -96.67,-43.28 -96.67,-96.66 0,-53.39 43.28,-96.67 96.67,-96.67 53.39,0 96.67,43.28 96.67,96.67 0,53.38 -43.28,96.66 -96.67,96.66"
             inkscape:connector-curvature="0" /></g><g
           transform="matrix(1.0650241,0,0,1.0650241,245.86426,638.26424)"
           id="g168"
           style="fill:#c4c26a;fill-opacity:1"
           inkscape:export-xdpi="118.72222"
           inkscape:export-ydpi="118.72222"><path
             id="path170"
             style="fill:#c4c26a;fill-opacity:1;fill-rule:nonzero;stroke:none"
             d="m 0,0 -1.62,-4.88 c -5.12,7.59 -10.87,4.89 -12.33,4.89 -1.53,0 -3.81,-0.61 -4.43,0.75 -1.13,2.48 -5.55,-0.13 -8.78,-1.81 -1.21,-0.62 -2.25,-2.34 -2.75,-3.66 -0.62,-1.67 -4.48,-3.18 -5,-4.58 -0.24,-0.62 -2.14,-3.78 -2.69,-4.17 -1.43,-0.99 -3.94,-3.27 -3.4,-7.6 0,-0.03 0.01,-0.05 0.01,-0.06 0,-0.94 -0.54,-1.55 -0.85,-1.82 -1.87,-1.62 -2.93,-3.97 -2.89,-6.45 0.03,-2.46 1.14,-4.75 3.03,-6.3 1.07,-0.87 1.71,-2.34 1.71,-3.92 0,-0.12 0,-0.24 -0.01,-0.35 l -0.03,-0.27 c -0.15,-1.52 0.39,-3.03 1.47,-4.11 l 0.07,-0.07 c 0.74,-0.79 1.54,-2.38 1.54,-4.01 0,-3.11 -2.87,-5.93 -8.75,-5.92 -0.38,0 -1.01,-0.02 -1.42,0 -2.81,0.12 -6.21,1.15 -8.31,2.21 -2.65,1.34 -4.4,1.7 -7.6,2.84 -3.42,1.2 -5.11,3.99 -5.5,4.87 -1.62,3.65 -3.79,5.41 -6.98,6.18 -0.53,0.13 -1.03,0.37 -1.43,0.74 -0.47,0.43 -0.93,0.99 -0.93,1.41 0,7.09 -2.83,5.3 -5.59,7.13 -0.22,0.14 -0.74,0.57 -0.74,1.37 0,1.95 -0.48,4.56 -3.42,5.59 -0.42,0.15 -1.85,0.29 -1.91,2.85 -0.01,0.36 0,0.62 0,0.79 0.06,0.07 0.44,0.49 0.44,0.49 1.56,1.75 2.67,3.9 3.15,6.12 h 0.45 c 0.44,0 0.79,0.35 0.79,0.79 v 1.54 c 0,0.44 -0.35,0.79 -0.79,0.79 h -0.19 c -0.09,1.62 -0.57,3.19 -1.48,4.58 -0.59,0.91 -1.08,2.85 -1.08,3.55 0,1.72 0.39,2.39 0.91,2.73 l 1.18,0.78 c 1.07,0.71 1.34,1.31 1.18,2.58 l -0.13,0.73 c -0.25,1.42 0.69,2.88 2.06,3.33 2.26,0.74 3.23,2.33 3.21,4.85 0,1.6 6.48,0.83 6.74,5.31 0.06,0.99 0.55,1.91 1.25,2.62 0.86,0.87 2.05,1.85 3.28,2.18 2.08,0.55 4.22,1.28 4.89,1.83 3.43,2.85 4.81,3.38 5.32,3.44 0.35,0 0.77,-0.07 1.18,-0.2 l 0.12,-0.04 c 1.31,-0.42 2.74,-0.33 3.98,0.26 l 1.5,0.64 c 2.16,1.03 3.24,1 5.75,1 2.96,0 6.13,0.03 8.54,-1.38 0,0 1.65,-1.77 3.72,-3.17 1.44,-0.99 3.14,-1.59 4.89,-1.58 2.93,0.02 3.72,-1.47 3.72,-1.47 2.48,-1.34 5.39,-3.65 8.34,-6.32 -6.4,0.91 -17.55,2.16 -20.09,0.21 0,0 -6.5,5.64 -20.38,0.82 0,0 12.26,2.06 17,-0.82 0,0 -8,-3.75 -8.12,-4.38 0,0 -11.43,0.72 -24.96,-8.72 0.97,0.4 18.15,7.43 20.58,5.85 0,0 -7.62,-7.5 -8.74,-9.75 0,0 -1,-1.88 -5.63,-4 -4.49,-2.05 -9.79,-9.51 -10.11,-9.98 0.53,0.44 10.79,8.97 12.86,8.48 0,0 -8.5,-10.12 -0.75,-25.88 0,0 -3.25,17.52 2.63,25.58 0,0 4.21,-10.12 4.49,-13.5 -0.07,1.82 -0.57,10.92 -3.37,15.3 0,0 7.75,10.62 11.25,13.12 0,0 2.37,-8.99 -0.24,-19.1 0.24,0.57 4.97,11.91 2.61,20.6 0,0 8.5,5.13 9.76,4.13 0,0 -0.35,-16.56 -4.03,-20.53 0.4,0.33 7.24,6.35 6.15,21.4 0,0 12.38,0.38 12.5,-0.24 0,0 -3.69,-8.25 -6.92,-10.09 0.79,0.35 7.22,3.37 9.92,9.46 0,0 3.12,-0.18 6.44,-0.65 C -6.59,7.96 0,0 0,0"
             inkscape:connector-curvature="0" /></g><g
           transform="matrix(1.0650241,0,0,1.0650241,221.5995,674.82641)"
           id="g172"
           style="fill:#c4c26a;fill-opacity:1"
           inkscape:export-xdpi="118.72222"
           inkscape:export-ydpi="118.72222"><path
             id="path174"
             style="fill:#c4c26a;fill-opacity:1;fill-rule:nonzero;stroke:none"
             d="m 0,0 -9.917,7.396 c -0.06,0.03 -0.31,0.594 -0.31,1.104 0,0.27 0.18,0.67 0.18,0.67 1.859,2.663 -2.043,8.067 -2.043,8.067 -0.044,0.173 -0.13,0.334 -0.261,0.454 -0.346,0.318 -0.735,0.846 -0.896,1.209 0.737,1.677 0.476,3.624 -0.676,5.048 l -0.634,0.782 c -1.53,1.87 -2.73,3.35 -2.73,6.44 0.02,0.22 0.141,3.08 0.141,3.08 0.117,1.798 -0.055,3.35 -1.386,4.965 -0.384,0.467 -0.634,1.329 -0.535,1.925 l 0.416,2.483 c 0.177,1.057 1.5,2.306 1.5,2.306 1.191,1.004 1.424,3.168 0.474,4.402 l -0.93,1.209 c -0.35,0.68 -0.53,1.48 -0.53,2.32 0,0.759 0.038,1.448 0.196,2.047 0.252,0.954 1.153,1.59 2.138,1.556 l 0.04,-0.002 c 1.012,-0.035 1.82,0.822 1.719,1.825 -0.219,2.165 -0.513,5.414 -0.513,5.414 -0.015,0.031 -0.011,0.204 0.005,0.458 0.117,1.9 1.364,3.196 2.846,4.552 0.49,0.685 0.722,1.517 0.651,2.356 -0.109,1.303 -0.192,3.043 -0.192,3.934 0,0.85 -0.01,1.6 -0.02,2.29 -0.01,0.31 0.006,2.627 -0.004,2.877 0,0 6.063,1.25 6.744,5.513 0.051,0.319 0.7,0.76 0.98,0.92 2.381,0.725 4.013,1.865 5.179,3.57 0.42,0.614 1.116,0.981 1.86,0.959 l 2.909,-0.085 c 0.488,-0.014 0.948,0.227 1.213,0.638 l 1.99,3.381 c 0.467,0.695 1.309,1.437 2.599,1.437 0.43,0 4.755,-1.417 7.776,1.25 0,0 4.438,3.563 5.764,3.83 1.722,0.314 2.912,-0.154 3.707,-0.803 0.876,-0.713 1.339,-1.818 1.393,-2.946 l 0.115,-2.414 c 0,0 2.038,1.031 3.846,1.947 2.003,1.014 4.567,-0.022 5.039,-2.217 0.013,-0.06 0.07,-0.866 0.133,-1.797 0.117,-1.756 1.336,-3.245 3.034,-3.706 l 1.907,-0.519 v -3.062 c 0,0 -2.834,-2.625 -0.925,-10.512 0,0 1.841,-2.828 -0.221,-7.221 0,0 -3.313,-5.017 -3.625,-7.33 -0.183,-1.35 -1.732,-3.888 -3.233,-5.42 -0.879,-0.897 -0.678,-2.38 0.42,-2.989 1.075,-0.597 1.813,-0.935 1.813,-1.653 0,-1.5 -2.465,-2.254 -2.465,-2.254 0,0 -1.278,-0.814 -1.011,-4.264 0.061,-0.793 -0.249,-1.574 -0.879,-2.058 -1.99,-1.529 -5.974,-5.417 -4.161,-11.01 0.385,-1.188 0.27,-2.479 -0.265,-3.608 -1.46,-3.076 -3.812,-8.888 -1.448,-10.161 0,0 -2.267,-6.166 -6.134,-9.166 0,0 3.967,-1.993 4.634,-4.372 l -4,-2.878 c 0,0 4.75,-2.834 3.333,-9.584 0,0 -2.5,-1.166 1.583,-5.25 l -0.583,-7.11 c 0,0 -11.505,15.444 -14.836,23.36 0,0 3.336,1.584 6.753,17.667 0,0 -6.334,-14.333 -7.75,-14.167 0,0 -5,12.334 -4.167,14 0,0 8,8.667 11.75,19.667 0,0 -9.86,-16.333 -12.305,-16.833 0,0 -1.945,8.636 -1.278,16.318 0,0 7.833,6.598 14,18.848 0,0 -12.75,-15.5 -13.917,-15.166 0,0 1.75,14.916 4.25,19.333 0,0 3,-0.083 13.083,12.583 0,0 -10,-9.75 -12.166,-10.333 0,0 4.833,13.917 9.25,18.167 0,0 -5.834,-3.75 -11.167,-18.917 0,0 -2,6.5 -1.333,16.583 0,0 -3.834,-9.25 0.25,-19.25 0,0 -4.167,-12.75 -3.75,-17.833 0,0 -5.917,10.25 -6.167,16.667 0,0 -0.083,-13.364 5.5,-20.682 0,0 -0.083,-14.318 1,-17.068 0,0 -9.254,7.234 -12.946,11.72 -0.211,0.255 -0.604,-0.021 -0.435,-0.306 1.508,-2.541 5.162,-7.154 13.964,-15.081 0,0 3.25,-11.667 4.25,-13.583 0,0 -5.416,1.416 -13.916,10 0,0 4.25,-8.084 15.583,-14.167 0,0 6.417,-13 12.583,-20.417 0,0 -23.916,13.5 -23.833,18.667"
             inkscape:connector-curvature="0" /></g><g
           transform="matrix(1.0650241,0,0,1.0650241,285.19028,687.34045)"
           id="g176"
           style="fill:#c4c26a;fill-opacity:1"
           inkscape:export-xdpi="118.72222"
           inkscape:export-ydpi="118.72222"><path
             id="path178"
             style="fill:#c4c26a;fill-opacity:1;fill-rule:nonzero;stroke:none"
             d="m 0,0 c 0,0 -9.604,9.594 -8.854,11.719 0,0 -9.021,7.781 -4.521,11.906 0,0 0.681,2.125 -1.222,4.25 -1.48,1.653 -0.357,5.952 1.356,9.134 0.919,1.707 1.302,3.646 0.982,5.557 -0.489,2.913 -1.067,7.096 -0.816,9.354 0.06,0.536 0.401,0.999 0.896,1.213 1.026,0.444 2.818,1.49 2.76,3.367 -0.081,2.625 0.294,10.875 0.294,10.875 0,0 4,-0.25 3.375,7.375 0,0 0,1.75 3.125,3.375 0,0 0.078,4.449 4.617,5.089 2.054,0.289 3.755,1.748 4.536,3.67 l 1.106,2.719 c 1.021,2.512 4.324,3.878 6.554,2.335 1.214,-0.841 3.049,-0.992 3.977,0.157 l 0.867,1.057 c 1.923,2.383 3.255,3.151 5.937,2.107 1.634,-0.771 2.829,0.606 3.718,2.179 0,0 2.188,2.187 4.993,0.055 l 0.857,-1.07 c 0.455,-0.569 1.249,-0.727 1.888,-0.377 1.481,0.813 5.075,2.38 4.8,-1.516 -0.072,-1.02 1.112,-1.734 2.127,-1.601 0.379,0.05 0.805,0.183 1.273,0.446 0,0 4,1.188 6.75,-2.812 0,0 3.875,-5.188 8.375,-4.688 l 3.714,-3.668 c 7.849,-6.394 5.368,-7.86 5.85,-11.598 0.447,-3.468 -0.308,-5.088 -1.173,-5.842 -0.695,-0.605 -1.963,-0.907 -2.766,-0.454 -2.036,1.148 -5.039,0.995 -6.187,-1 l -5.367,-0.044 c -1.488,-0.012 -2.91,-0.608 -3.962,-1.66 L 48.75,60.5 48.489,60.514 c -1.273,0.071 -2.522,-0.369 -3.47,-1.222 L 39,53.875 h -1.625 c -1.097,0 -2.043,-0.77 -2.265,-1.845 L 35,51.5 C 34.765,50.362 33.995,49.408 32.933,48.936 L 31.95,48.5 C 29.066,47.444 28.05,46.508 28,43.438 27.928,41.384 26.377,39.685 24.339,39.427 L 23.586,39.331 C 19.562,38.938 19.374,35.265 19.529,34.157 20.182,29.5 16.687,27.5 16.687,27.5 15.006,26.678 14.795,23.062 14.795,23.062 15.119,20.552 12.515,16.109 12.515,16.109 10.652,14.496 9.131,12.152 9.125,9.688 9.119,7.464 9.489,5.087 9.875,4.25 L 3.938,2.188 c 0,0 -4.875,11 -4.688,28.687 0,0 9.53,6.125 12.265,11.75 0,0 -9.703,-8.375 -11.952,-8.5 0,0 0.312,7.375 2.437,12.25 0,0 10,1.75 12,5.375 0,0 -6.625,-2.875 -11.125,-2.75 0,0 5,11.25 10.5,16.5 0,0 8.5,-2.25 16.375,-0.5 0,0 -13.125,1.375 -13.375,2.625 0,0 5.625,6.25 8.625,7.625 0,0 13.025,-1.062 19.5,0.25 0,0 -14,1.875 -16.25,1.875 0,0 11.25,4.375 18.125,5.25 0,0 -10.562,0.125 -16.688,-2.875 0,0 5.688,6.875 9.438,9 0,0 -9.438,-3.25 -13.313,-10.75 0,0 -8.812,-5.187 -10.562,-8.312 0,0 -1.255,4.878 4,12.312 0,0 -6.61,-6.062 -7.735,-15.812 0,0 -8.077,-7.875 -10.078,-15.125 0,0 -2.562,3.187 -3.812,12.062 0,0 -0.938,-6.625 1.938,-15.687 0,0 -2.813,-9.125 -2.188,-12.75 0,0 -4.25,4.562 -6.125,10.562 0,0 0.25,-8.375 5.625,-15 C -3.125,30.25 -2,8.313 1.5,0 Z"
             inkscape:connector-curvature="0" /></g><g
           transform="matrix(1.0650241,0,0,1.0650241,437.86682,721.62357)"
           id="g180"
           style="fill:#c4c26a;fill-opacity:1"
           inkscape:export-xdpi="118.72222"
           inkscape:export-ydpi="118.72222"><path
             id="path182"
             style="fill:#c4c26a;fill-opacity:1;fill-rule:nonzero;stroke:none"
             d="m 0,0 -4.89,6.5 c -0.74,0.97 -0.94,2.39 -0.19,3.35 0.47,0.6 -0.03,1.86 -1,2.54 -2.6,1.81 -4.61,4.05 -5.9,6.93 -0.98,2.16 -0.76,4.35 -3.69,4.12 -1.05,-0.09 -2.39,1.05 -2.64,2.08 -0.87,1.36 -1.66,2.06 -2.62,2.45 -0.96,0.4 -2.08,0.49 -3.59,0.67 l -0.97,-0.19 c -1.32,-0.2 -2.47,0.91 -2.31,2.24 l 0.57,1.04 -7.65,0.71 c -1.76,0 -4.49,0.93 -5.09,2.59 0,0 -0.4,0.7 -2.3,0.7 -1.99,0 -5.63,-0.77 -12.16,-3.91 -0.89,0.4 -1.85,0.62 -2.86,0.62 -2.812,0 -5.282,-1.704 -6.691,-4.274 -0.77,-1.404 -2.21,-2.28 -3.811,-2.229 -0.063,0.002 -0.126,0.003 -0.188,0.003 -4.193,0 -5.898,1.919 -9.548,-5.113 -0.823,-1.584 -2.481,-2.56 -4.266,-2.547 h -0.066 c -3.45,0 -6.25,-2.71 -6.25,-6.05 0,-0.35 0.06,-0.72 0.16,-1.11 -0.43,0.13 -0.88,0.19 -1.34,0.19 -3.1,0 -5.64,-2.89 -5.79,-6.52 -3.52,-0.23 -4.9,-1.455 -4.9,-3.965 0,-0.91 -1.02,-2.585 -0.38,-3.305 v -3.55 c -2.06,-0.81 -3.5,-2.59 -3.5,-4.66 0,-0.535 0.095,-1.05 0.274,-1.535 0.422,-1.145 0.502,-2.404 -0.021,-3.507 -0.278,-0.585 -0.607,-1.14 -0.993,-1.588 0,0 -1.26,-11.71 1.12,-15.48 0,0 -1.38,-4.23 0.21,-9.24 1.36,6.01 4.89,20.4 9.06,27.29 1.04,0.67 1.81,1.64 2.15,2.76 0.01,0.01 0.01,0.02 0.01,0.04 0.13,0.4 0.19,0.82 0.19,1.26 0,0.46 -0.07,0.91 -0.21,1.33 0.01,1.35 0.08,3.09 0.28,4.9 0.1,0.98 0.25,1.97 0.43,2.94 0.38,1.89 0.94,3.67 1.78,4.97 0.22,0.35 0.48,0.67 0.76,0.94 -0.03,-0.11 -0.15,-0.57 -0.31,-1.28 -0.17,-0.78 -0.38,-1.86 -0.53,-3.06 -0.14,-1.15 -0.23,-2.43 -0.18,-3.67 0.07,-1.58 0.35,-3.12 1.03,-4.32 0,0 -0.23,4.51 8.83,10.92 0,0 0.68,5.26 2.61,7.9 0,0 -0.52,-6.51 0.72,-5.4 7.59,6.75 10.67,6.41 17.29,8.77 0,0 0,0.01 0.01,0.01 0.39,0.74 0.86,1.45 1.39,2.14 0.57,0.74 1.21,1.44 1.88,2.11 2.18,2.15 4.74,3.91 6.71,5.11 1.75,1.06 3.05,1.69 3.2,1.76 -1.21,-0.88 -2.28,-1.7 -3.2,-2.47 -6.66,-5.53 -6.44,-8.27 -6.44,-8.27 0.81,0.31 1.68,0.51 2.6,0.62 6.78,0.85 15.9,-3.03 15.9,-3.03 8.66,4.34 16.08,2.41 16.08,2.41 -9.08,-0.7 -15,-3.33 -12.25,-3.91 0.14,-0.03 11.79,-7.65 15.43,-10.03 -8.89,5.66 -16.01,8.61 -16.01,8.61 -1.17,-1.92 9.75,-15.5 9.75,-15.5 -6.25,3 -14,16.83 -14,16.83 -4,2.84 -16.43,2.34 -16.43,2.34 0.25,-2.67 8.76,-10.25 8.76,-10.25 -6.83,2 -12.36,9.5 -12.36,9.5 -6.67,-1.46 -7.97,-2.62 -9.31,-3.34 -14.45,-7.75 -9.38,-6.91 2.07,-6.31 0.52,0.03 -0.78,-0.91 -2.4,-1.19 -6.282,-1.092 -10.795,-1.065 -11.429,-1.051 -0.043,-0.013 -0.08,-0.024 -0.123,-0.036 -3.289,-2.199 -9.278,-9.323 -9.278,-9.323 4.99,-1.13 11.48,2.11 11.89,2.32 -4.34,-3.08 -12.89,-5.07 -12.89,-5.07 -5.99,-7.19 -10.02,-26.88 -11.39,-34.51 1,-1.46 2.34,-2.91 4.1,-4.27 0,0 0.58,0.67 0.86,2.43 0.41,2.62 1.64,5.02 3.32,7.07 1.81,2.23 4.44,5.99 3.63,17.69 0,0 4.43,2.56 6.14,5.92 3.46,6.79 5.85,5.96 9.71,5.63 1.93,-0.17 3.79,0.79 4.72,2.48 1.08,1.94 2.83,4.17 4.91,3.24 0.95,-0.43 2.08,-0.11 2.79,0.65 1.47,1.55 2.38,2.87 5.96,0.25 0,0 3.86,-0.21 6.61,0.86 0.8,0.31 1.69,0.09 2.28,-0.53 1.78,-1.88 5.36,-5.46 7.19,-5.83 l 5.51,0.1 c 3.23,0.06 6.31,-1.37 8.35,-3.88 l 1.24,-1.51 c 0.49,-0.61 1.23,-0.94 2.01,-0.91 l 1.64,0.07 c 0,0 4,-3.24 6.13,-9 0,0 4.41,-3.08 7.04,1.05 0.55,0.76 1,1.58 1.51,2.33 0.51,0.76 1.09,1.44 1.88,1.95 1.09,0.7 2.36,2.06 2.57,4.67 0.37,4.76 -1.67,7.88 -1.46,10.26 0.2,2.37 2.19,2.68 2.56,5.56"
             inkscape:connector-curvature="0" /></g><g
           transform="matrix(1.0650241,0,0,1.0650241,346.47358,648.91075)"
           id="g184"
           style="fill:#c4c26a;fill-opacity:1"
           inkscape:export-xdpi="118.72222"
           inkscape:export-ydpi="118.72222"><path
             id="path186"
             style="fill:#c4c26a;fill-opacity:1;fill-rule:nonzero;stroke:none"
             d="m 0,0 c 0,0 4.5,9.5 9.667,11 0,0 -0.133,3.056 3.279,5.016 1.213,0.697 2.342,1.532 3.339,2.514 1.444,1.422 3.339,3.391 4.413,4.916 0.472,0.671 1.255,1.054 2.076,1.054 l 0.877,0.238 c 0.707,0.191 1.355,0.554 1.887,1.056 l 3.366,2.973 c 1.042,0.92 2.57,1.768 3.896,1.35 0.386,-0.122 0.807,-0.02 1.093,0.265 l 2.7,2.391 c 0.914,0.81 2.199,1.061 3.341,0.63 2.084,-0.786 5.454,-1.674 6.958,0.055 0.504,0.58 1.118,1.069 1.874,1.204 0.958,0.171 2.384,0.177 4.234,-0.495 2.835,-1.031 3.86,-1.57 6.427,-0.635 1.481,0.54 3.122,-0.018 3.999,-1.328 1.084,-1.62 3.793,-3.266 6.324,-1.954 0,0 0.35,-0.768 1.75,-3.333 0.904,-1.656 2.64,-2.684 4.526,-2.664 l 1.057,0.247 c 2.092,0.125 4.334,-0.917 4.098,-3.519 l -0.004,-0.02 c -0.365,-1.433 0.417,-2.909 1.808,-3.411 l 0.173,-0.063 c 1.305,-0.471 2.11,-1.785 1.937,-3.162 l -0.011,-0.087 c -0.27,-2.153 0.424,-4.316 1.896,-5.91 l 1.264,-1.369 c 0.548,-0.594 1.052,-1.233 1.454,-1.934 0.871,-1.515 1.548,-1.383 0.37,-3.851 v 0 C 88.885,-0.242 89.22,-2.375 90.78,-3.36 l 0.644,-0.407 c 1.806,-1.14 2.239,-3.474 0.963,-5.186 l -0.061,-0.083 c -1.62,-2.172 -2.464,-4.802 -2.411,-7.491 l 0.177,-8.986 c 0.035,-1.778 -1.368,-3.491 -3.118,-3.807 -2.402,-0.434 -4.091,-2.61 -3.915,-5.045 v 0 c 0.141,-1.96 -1.555,-3.554 -3.503,-3.291 l -2.71,-0.118 -5.013,-6.893 c 0,0 -2.389,0.385 -3,1.167 l -6.379,-5.717 c -1.489,-1.334 -3.63,-1.653 -5.443,-0.81 l -1.223,0.569 c -2.915,1.355 -6.266,1.415 -9.228,0.166 -2.814,-1.186 -6.065,-0.571 -8.25,1.561 l -13.334,13.01 c -1.268,1.237 -0.329,3.384 1.44,3.294 l 4.662,-0.24 1.089,1.296 0.844,-0.828 c 0.668,-0.656 1.711,-0.737 2.473,-0.192 l 7.683,5.494 c 0,0 3.833,-4.23 5.5,0 0,0 0,2.041 -0.85,5.481 -0.667,2.702 -0.289,5.573 1.071,8.001 0.138,0.245 0.286,0.495 0.445,0.748 1.834,2.917 -4,8.917 -5.75,8.75 -1.427,-0.136 -6.416,0.084 -6.416,0.084 l -3.307,2.321 c -2.726,1.914 -6.35,1.946 -9.108,0.08 l -5.153,-3.485 c 0,0 -3.455,-3.49 -7.694,-4.703 L 5.5,-14.833 3.713,-7.971 c 0,0 13.944,17.35 27.365,21.91 0,0 4.13,-7.535 7.005,-9.383 0,0 -4.723,8.652 -4.736,10.527 0,0 11.861,4.375 18.111,0 0,0 -2.375,-7.916 -0.125,-16.583 0,0 0.375,13.458 2.625,15.958 0,0 7.375,-2.5 14.125,-14 0,0 -10,-10.221 -13,-20.36 0,0 6.5,12.069 13.75,18.402 0,0 4.625,-5.542 2.25,-17.417 0,0 -9.625,-3.682 -14.25,-10.403 0,0 9.75,7.653 13.125,7.028 0,0 -2.125,-8.625 -8.25,-15.625 0,0 7.625,6.625 10.625,15.375 0,0 3.25,-1.432 4.125,-6.778 0,0 0.125,6.557 -2.875,9.418 0,0 2.25,10.819 -1.875,18.402 0,0 4.375,-0.667 8.5,-4.417 0,0 -2.625,4.25 -9.625,7.125 0,0 -5.625,10.75 -16.375,15.5 0,0 4.75,4.75 7.875,5.625 0,0 -5.125,-0.845 -9.25,-4.61 0,0 -11.223,4.11 -19.486,-0.64 0,0 0.611,3.875 5.111,7.5 0,0 -4.875,-1.625 -8.875,-8.5 0,0 -8.5,-2 -27,-21.375 z"
             inkscape:connector-curvature="0" /></g></g></g></g></svg>